<svg width="437" height="79" viewBox="0 0 437 79" fill="none" xmlns="http://www.w3.org/2000/svg">
<mask id="path-1-outside-1_3_167" maskUnits="userSpaceOnUse" x="0" y="0" width="437" height="79" fill="black">
<rect fill="white" width="437" height="79"/>
<path d="M6.25 73L27.7656 4.75H46.2344L67.2812 73H51.0156L37.9375 26.8281C37.5625 25.5781 37.25 24.4844 37 23.5469C36.7812 22.5781 36.5781 21.75 36.3906 21.0625H36.25C36.0625 21.75 35.8438 22.5625 35.5938 23.5C35.3438 24.4375 35.0625 25.5469 34.75 26.8281L22.2344 73H6.25ZM18.5781 59.4531L20.7812 48.5781H52.2344L54.6719 59.4531H18.5781ZM70.2188 73V29.875H85.875V36.2031H86.0156C87.5156 33.8906 89.4688 32.0781 91.875 30.7656C94.2812 29.4219 97.1094 28.75 100.359 28.75C103.516 28.75 106.234 29.4062 108.516 30.7188C110.797 32.0312 112.359 33.9688 113.203 36.5312H113.297C114.953 34.0625 117.156 32.1406 119.906 30.7656C122.656 29.3906 125.734 28.7031 129.141 28.7031C133.453 28.7031 136.906 29.9219 139.5 32.3594C142.094 34.7656 143.391 38.7812 143.391 44.4062V73H127.312V47.0781C127.312 44.6406 126.828 42.9531 125.859 42.0156C124.891 41.0469 123.516 40.5469 121.734 40.5156C120.141 40.5156 118.766 41.0156 117.609 42.0156C116.453 43.0156 115.516 44.2969 114.797 45.8594V73H98.7188V47.0781C98.7188 44.6406 98.2344 42.9375 97.2656 41.9688C96.2969 41 94.9062 40.5156 93.0938 40.5156C91.5 40.5156 90.125 41.0312 88.9688 42.0625C87.8438 43.0625 86.9219 44.3438 86.2031 45.9062V73H70.2188ZM150.828 73V29.875H167.094V73H150.828ZM149.984 14.6875C149.984 12.4375 150.766 10.5312 152.328 8.96875C153.891 7.375 156.125 6.57812 159.031 6.57812C161.906 6.57812 164.109 7.35938 165.641 8.92188C167.172 10.4531 167.938 12.375 167.938 14.6875C167.938 16.9688 167.141 18.9219 165.547 20.5469C163.984 22.1406 161.766 22.9375 158.891 22.9375C156.016 22.9375 153.812 22.1406 152.281 20.5469C150.75 18.9219 149.984 16.9688 149.984 14.6875ZM171.484 41.3594V29.875H203.359V41.3594H171.484ZM178.234 59.4531V31.9844L178.703 31.4219V15.5312H193.938V55.4219C193.938 58.5469 194.328 60.5469 195.109 61.4219C195.891 62.2969 197.172 62.7344 198.953 62.7344C199.766 62.7344 200.531 62.6875 201.25 62.5938C202 62.4688 202.719 62.2812 203.406 62.0312V72.7656C202.531 73.0156 201.188 73.2656 199.375 73.5156C197.562 73.7969 195.25 73.9375 192.438 73.9375C187.844 73.9375 184.328 72.8125 181.891 70.5625C179.453 68.2812 178.234 64.5781 178.234 59.4531ZM242.516 73.1875L226.438 4.75H242.375L252.172 48.0625C252.297 48.5625 252.406 49.125 252.5 49.75C252.594 50.375 252.688 51.0938 252.781 51.9062H252.969C253.094 51.125 253.219 50.4219 253.344 49.7969C253.469 49.1406 253.578 48.5625 253.672 48.0625L263.984 4.75H278.75L289.625 48.0625C289.719 48.5625 289.812 49.125 289.906 49.75C290.031 50.3438 290.156 51.0625 290.281 51.9062H290.469C290.562 51.0625 290.656 50.3281 290.75 49.7031C290.844 49.0781 290.953 48.5312 291.078 48.0625L300.406 4.75H315.266L299.188 73.1875H282.875L271.859 29.8281C271.766 29.4219 271.656 28.8906 271.531 28.2344C271.406 27.5469 271.281 26.8125 271.156 26.0312H270.969C270.844 26.8125 270.719 27.5312 270.594 28.1875C270.469 28.8438 270.359 29.3906 270.266 29.8281L259.25 73.1875H242.516ZM314.5 52.0469V50.5469C314.5 43.8281 316.672 38.4844 321.016 34.5156C325.359 30.5469 331.203 28.5625 338.547 28.5625C345.734 28.5625 351.266 30.4844 355.141 34.3281C359.016 38.1406 360.953 43.375 360.953 50.0312V54.2969H322.938V46.4219H345.531V46.0938C345.531 44.1875 344.938 42.6094 343.75 41.3594C342.594 40.1094 340.812 39.4844 338.406 39.4844C335.781 39.4844 333.797 40.4219 332.453 42.2969C331.109 44.1406 330.438 46.3125 330.438 48.8125V52.1406C330.438 55.6406 331.156 58.3438 332.594 60.25C334.062 62.125 336.172 63.0625 338.922 63.0625C340.984 63.0625 342.688 62.6562 344.031 61.8438C345.375 61.0312 346.422 59.9219 347.172 58.5156L360.672 61.8906C359.234 65.7344 356.797 68.7344 353.359 70.8906C349.922 73.0469 345.156 74.125 339.062 74.125C331.25 74.125 325.203 72.1562 320.922 68.2188C316.641 64.2812 314.5 58.8906 314.5 52.0469ZM366.516 73V29.875H382.781V73H366.516ZM365.672 14.6875C365.672 12.4375 366.453 10.5312 368.016 8.96875C369.578 7.375 371.812 6.57812 374.719 6.57812C377.594 6.57812 379.797 7.35938 381.328 8.92188C382.859 10.4531 383.625 12.375 383.625 14.6875C383.625 16.9688 382.828 18.9219 381.234 20.5469C379.672 22.1406 377.453 22.9375 374.578 22.9375C371.703 22.9375 369.5 22.1406 367.969 20.5469C366.438 18.9219 365.672 16.9688 365.672 14.6875ZM389.234 58.9844L403.297 59.125V60.0625C403.297 62.0938 403.953 63.5 405.266 64.2812C406.578 65.0312 408.328 65.4062 410.516 65.4062C412.641 65.4062 414.188 65.1094 415.156 64.5156C416.156 63.8906 416.656 62.9219 416.656 61.6094C416.656 60.3594 415.953 59.375 414.547 58.6562C413.172 57.9375 410.578 57.2344 406.766 56.5469C400.953 55.4844 396.734 53.8281 394.109 51.5781C391.516 49.2969 390.219 46.1562 390.219 42.1562C390.219 37.7188 392.031 34.3438 395.656 32.0312C399.312 29.6875 404.406 28.5156 410.938 28.5156C417.312 28.5156 422.297 29.7188 425.891 32.125C429.516 34.5312 431.328 37.9844 431.328 42.4844V43.4688H417.312V42.4844C417.312 40.7031 416.719 39.4531 415.531 38.7344C414.375 37.9844 412.703 37.6094 410.516 37.6094C408.641 37.6094 407.281 37.8906 406.438 38.4531C405.625 38.9844 405.219 39.8438 405.219 41.0312C405.219 42.0938 405.906 42.9531 407.281 43.6094C408.656 44.2656 411.25 44.9375 415.062 45.625C421.219 46.6562 425.672 48.25 428.422 50.4062C431.172 52.5625 432.547 55.5156 432.547 59.2656C432.547 64.2656 430.703 68 427.016 70.4688C423.328 72.9062 417.969 74.125 410.938 74.125C404.094 74.125 398.812 72.8906 395.094 70.4219C391.375 67.9531 389.438 64.4219 389.281 59.8281L389.234 58.9844Z"/>
</mask>
<path d="M6.25 73L27.7656 4.75H46.2344L67.2812 73H51.0156L37.9375 26.8281C37.5625 25.5781 37.25 24.4844 37 23.5469C36.7812 22.5781 36.5781 21.75 36.3906 21.0625H36.25C36.0625 21.75 35.8438 22.5625 35.5938 23.5C35.3438 24.4375 35.0625 25.5469 34.75 26.8281L22.2344 73H6.25ZM18.5781 59.4531L20.7812 48.5781H52.2344L54.6719 59.4531H18.5781ZM70.2188 73V29.875H85.875V36.2031H86.0156C87.5156 33.8906 89.4688 32.0781 91.875 30.7656C94.2812 29.4219 97.1094 28.75 100.359 28.75C103.516 28.75 106.234 29.4062 108.516 30.7188C110.797 32.0312 112.359 33.9688 113.203 36.5312H113.297C114.953 34.0625 117.156 32.1406 119.906 30.7656C122.656 29.3906 125.734 28.7031 129.141 28.7031C133.453 28.7031 136.906 29.9219 139.5 32.3594C142.094 34.7656 143.391 38.7812 143.391 44.4062V73H127.312V47.0781C127.312 44.6406 126.828 42.9531 125.859 42.0156C124.891 41.0469 123.516 40.5469 121.734 40.5156C120.141 40.5156 118.766 41.0156 117.609 42.0156C116.453 43.0156 115.516 44.2969 114.797 45.8594V73H98.7188V47.0781C98.7188 44.6406 98.2344 42.9375 97.2656 41.9688C96.2969 41 94.9062 40.5156 93.0938 40.5156C91.5 40.5156 90.125 41.0312 88.9688 42.0625C87.8438 43.0625 86.9219 44.3438 86.2031 45.9062V73H70.2188ZM150.828 73V29.875H167.094V73H150.828ZM149.984 14.6875C149.984 12.4375 150.766 10.5312 152.328 8.96875C153.891 7.375 156.125 6.57812 159.031 6.57812C161.906 6.57812 164.109 7.35938 165.641 8.92188C167.172 10.4531 167.938 12.375 167.938 14.6875C167.938 16.9688 167.141 18.9219 165.547 20.5469C163.984 22.1406 161.766 22.9375 158.891 22.9375C156.016 22.9375 153.812 22.1406 152.281 20.5469C150.75 18.9219 149.984 16.9688 149.984 14.6875ZM171.484 41.3594V29.875H203.359V41.3594H171.484ZM178.234 59.4531V31.9844L178.703 31.4219V15.5312H193.938V55.4219C193.938 58.5469 194.328 60.5469 195.109 61.4219C195.891 62.2969 197.172 62.7344 198.953 62.7344C199.766 62.7344 200.531 62.6875 201.25 62.5938C202 62.4688 202.719 62.2812 203.406 62.0312V72.7656C202.531 73.0156 201.188 73.2656 199.375 73.5156C197.562 73.7969 195.25 73.9375 192.438 73.9375C187.844 73.9375 184.328 72.8125 181.891 70.5625C179.453 68.2812 178.234 64.5781 178.234 59.4531ZM242.516 73.1875L226.438 4.75H242.375L252.172 48.0625C252.297 48.5625 252.406 49.125 252.5 49.75C252.594 50.375 252.688 51.0938 252.781 51.9062H252.969C253.094 51.125 253.219 50.4219 253.344 49.7969C253.469 49.1406 253.578 48.5625 253.672 48.0625L263.984 4.75H278.75L289.625 48.0625C289.719 48.5625 289.812 49.125 289.906 49.75C290.031 50.3438 290.156 51.0625 290.281 51.9062H290.469C290.562 51.0625 290.656 50.3281 290.75 49.7031C290.844 49.0781 290.953 48.5312 291.078 48.0625L300.406 4.75H315.266L299.188 73.1875H282.875L271.859 29.8281C271.766 29.4219 271.656 28.8906 271.531 28.2344C271.406 27.5469 271.281 26.8125 271.156 26.0312H270.969C270.844 26.8125 270.719 27.5312 270.594 28.1875C270.469 28.8438 270.359 29.3906 270.266 29.8281L259.25 73.1875H242.516ZM314.5 52.0469V50.5469C314.5 43.8281 316.672 38.4844 321.016 34.5156C325.359 30.5469 331.203 28.5625 338.547 28.5625C345.734 28.5625 351.266 30.4844 355.141 34.3281C359.016 38.1406 360.953 43.375 360.953 50.0312V54.2969H322.938V46.4219H345.531V46.0938C345.531 44.1875 344.938 42.6094 343.75 41.3594C342.594 40.1094 340.812 39.4844 338.406 39.4844C335.781 39.4844 333.797 40.4219 332.453 42.2969C331.109 44.1406 330.438 46.3125 330.438 48.8125V52.1406C330.438 55.6406 331.156 58.3438 332.594 60.25C334.062 62.125 336.172 63.0625 338.922 63.0625C340.984 63.0625 342.688 62.6562 344.031 61.8438C345.375 61.0312 346.422 59.9219 347.172 58.5156L360.672 61.8906C359.234 65.7344 356.797 68.7344 353.359 70.8906C349.922 73.0469 345.156 74.125 339.062 74.125C331.25 74.125 325.203 72.1562 320.922 68.2188C316.641 64.2812 314.5 58.8906 314.5 52.0469ZM366.516 73V29.875H382.781V73H366.516ZM365.672 14.6875C365.672 12.4375 366.453 10.5312 368.016 8.96875C369.578 7.375 371.812 6.57812 374.719 6.57812C377.594 6.57812 379.797 7.35938 381.328 8.92188C382.859 10.4531 383.625 12.375 383.625 14.6875C383.625 16.9688 382.828 18.9219 381.234 20.5469C379.672 22.1406 377.453 22.9375 374.578 22.9375C371.703 22.9375 369.5 22.1406 367.969 20.5469C366.438 18.9219 365.672 16.9688 365.672 14.6875ZM389.234 58.9844L403.297 59.125V60.0625C403.297 62.0938 403.953 63.5 405.266 64.2812C406.578 65.0312 408.328 65.4062 410.516 65.4062C412.641 65.4062 414.188 65.1094 415.156 64.5156C416.156 63.8906 416.656 62.9219 416.656 61.6094C416.656 60.3594 415.953 59.375 414.547 58.6562C413.172 57.9375 410.578 57.2344 406.766 56.5469C400.953 55.4844 396.734 53.8281 394.109 51.5781C391.516 49.2969 390.219 46.1562 390.219 42.1562C390.219 37.7188 392.031 34.3438 395.656 32.0312C399.312 29.6875 404.406 28.5156 410.938 28.5156C417.312 28.5156 422.297 29.7188 425.891 32.125C429.516 34.5312 431.328 37.9844 431.328 42.4844V43.4688H417.312V42.4844C417.312 40.7031 416.719 39.4531 415.531 38.7344C414.375 37.9844 412.703 37.6094 410.516 37.6094C408.641 37.6094 407.281 37.8906 406.438 38.4531C405.625 38.9844 405.219 39.8438 405.219 41.0312C405.219 42.0938 405.906 42.9531 407.281 43.6094C408.656 44.2656 411.25 44.9375 415.062 45.625C421.219 46.6562 425.672 48.25 428.422 50.4062C431.172 52.5625 432.547 55.5156 432.547 59.2656C432.547 64.2656 430.703 68 427.016 70.4688C423.328 72.9062 417.969 74.125 410.938 74.125C404.094 74.125 398.812 72.8906 395.094 70.4219C391.375 67.9531 389.438 64.4219 389.281 59.8281L389.234 58.9844Z" fill="#7D5260"/>
<path d="M6.25 73L2.43508 71.7974L0.794957 77H6.25V73ZM27.7656 4.75V0.75H24.8326L23.9507 3.54736L27.7656 4.75ZM46.2344 4.75L50.0568 3.57126L49.1867 0.75H46.2344V4.75ZM67.2812 73V77H72.7006L71.1036 71.8213L67.2812 73ZM51.0156 73L47.167 74.0901L47.9913 77H51.0156V73ZM37.9375 26.8281L41.7861 25.738L41.7777 25.7083L41.7688 25.6787L37.9375 26.8281ZM37 23.5469L33.0982 24.4279L33.1152 24.5031L33.1351 24.5775L37 23.5469ZM36.3906 21.0625L40.2497 20.01L39.4458 17.0625H36.3906V21.0625ZM36.25 21.0625V17.0625H33.1948L32.3909 20.01L36.25 21.0625ZM34.75 26.8281L38.6107 27.8746L38.624 27.8254L38.6361 27.7759L34.75 26.8281ZM22.2344 73V77H25.2945L26.0951 74.0465L22.2344 73ZM18.5781 59.4531L14.6578 58.6589L13.6865 63.4531H18.5781V59.4531ZM20.7812 48.5781V44.5781H17.5103L16.8609 47.7839L20.7812 48.5781ZM52.2344 48.5781L56.1375 47.7033L55.4371 44.5781H52.2344V48.5781ZM54.6719 59.4531V63.4531H59.6677L58.575 58.5783L54.6719 59.4531ZM6.25 73L10.0649 74.2026L31.5805 5.95264L27.7656 4.75L23.9507 3.54736L2.43508 71.7974L6.25 73ZM27.7656 4.75V8.75H46.2344V4.75V0.75H27.7656V4.75ZM46.2344 4.75L42.412 5.92874L63.4589 74.1787L67.2812 73L71.1036 71.8213L50.0568 3.57126L46.2344 4.75ZM67.2812 73V69H51.0156V73V77H67.2812V73ZM51.0156 73L54.8642 71.9099L41.7861 25.738L37.9375 26.8281L34.0889 27.9182L47.167 74.0901L51.0156 73ZM37.9375 26.8281L41.7688 25.6787C41.4019 24.4557 41.1014 23.4031 40.8649 22.5162L37 23.5469L33.1351 24.5775C33.3986 25.5656 33.7231 26.7006 34.1062 27.9775L37.9375 26.8281ZM37 23.5469L40.9018 22.6658C40.6747 21.6601 40.4574 20.7715 40.2497 20.01L36.3906 21.0625L32.5316 22.115C32.6989 22.7285 32.8878 23.4962 33.0982 24.4279L37 23.5469ZM36.3906 21.0625V17.0625H36.25V21.0625V25.0625H36.3906V21.0625ZM36.25 21.0625L32.3909 20.01C32.2009 20.7069 31.9801 21.527 31.7288 22.4693L35.5938 23.5L39.4587 24.5307C39.7074 23.598 39.9241 22.7931 40.1091 22.115L36.25 21.0625ZM35.5938 23.5L31.7288 22.4693C31.4694 23.4421 31.181 24.5804 30.8639 25.8803L34.75 26.8281L38.6361 27.7759C38.944 26.5133 39.2181 25.4329 39.4587 24.5307L35.5938 23.5ZM34.75 26.8281L30.8893 25.7816L18.3737 71.9535L22.2344 73L26.0951 74.0465L38.6107 27.8746L34.75 26.8281ZM22.2344 73V69H6.25V73V77H22.2344V73ZM18.5781 59.4531L22.4985 60.2473L24.7016 49.3723L20.7812 48.5781L16.8609 47.7839L14.6578 58.6589L18.5781 59.4531ZM20.7812 48.5781V52.5781H52.2344V48.5781V44.5781H20.7812V48.5781ZM52.2344 48.5781L48.3312 49.453L50.7687 60.328L54.6719 59.4531L58.575 58.5783L56.1375 47.7033L52.2344 48.5781ZM54.6719 59.4531V55.4531H18.5781V59.4531V63.4531H54.6719V59.4531ZM70.2188 73H66.2188V77H70.2188V73ZM70.2188 29.875V25.875H66.2188V29.875H70.2188ZM85.875 29.875H89.875V25.875H85.875V29.875ZM85.875 36.2031H81.875V40.2031H85.875V36.2031ZM86.0156 36.2031V40.2031H88.1888L89.3715 38.3799L86.0156 36.2031ZM91.875 30.7656L93.7904 34.2772L93.8079 34.2677L93.8253 34.258L91.875 30.7656ZM113.203 36.5312L109.404 37.7823L110.309 40.5312H113.203V36.5312ZM113.297 36.5312V40.5312H115.43L116.619 38.7597L113.297 36.5312ZM139.5 32.3594L136.761 35.2742L136.77 35.2831L136.78 35.2918L139.5 32.3594ZM143.391 73V77H147.391V73H143.391ZM127.312 73H123.312V77H127.312V73ZM125.859 42.0156L123.031 44.8441L123.054 44.8672L123.078 44.89L125.859 42.0156ZM121.734 40.5156L121.805 36.5162L121.769 36.5156H121.734V40.5156ZM114.797 45.8594L111.163 44.1878L110.797 44.9835V45.8594H114.797ZM114.797 73V77H118.797V73H114.797ZM98.7188 73H94.7188V77H98.7188V73ZM88.9688 42.0625L91.6262 45.0521L91.6312 45.0477L88.9688 42.0625ZM86.2031 45.9062L82.5692 44.2346L82.2031 45.0304V45.9062H86.2031ZM86.2031 73V77H90.2031V73H86.2031ZM70.2188 73H74.2188V29.875H70.2188H66.2188V73H70.2188ZM70.2188 29.875V33.875H85.875V29.875V25.875H70.2188V29.875ZM85.875 29.875H81.875V36.2031H85.875H89.875V29.875H85.875ZM85.875 36.2031V40.2031H86.0156V36.2031V32.2031H85.875V36.2031ZM86.0156 36.2031L89.3715 38.3799C90.5118 36.6218 91.9712 35.2695 93.7904 34.2772L91.875 30.7656L89.9596 27.254C86.9663 28.8867 84.5194 31.1594 82.6598 34.0264L86.0156 36.2031ZM91.875 30.7656L93.8253 34.258C95.5367 33.3023 97.6693 32.75 100.359 32.75V28.75V24.75C96.5494 24.75 93.0258 25.5415 89.9247 27.2733L91.875 30.7656ZM100.359 28.75V32.75C102.955 32.75 104.957 33.2861 106.521 34.1859L108.516 30.7188L110.51 27.2516C107.512 25.5264 104.076 24.75 100.359 24.75V28.75ZM108.516 30.7188L106.521 34.1859C107.925 34.9937 108.86 36.1296 109.404 37.7823L113.203 36.5312L117.002 35.2802C115.859 31.8079 113.669 29.0688 110.51 27.2516L108.516 30.7188ZM113.203 36.5312V40.5312H113.297V36.5312V32.5312H113.203V36.5312ZM113.297 36.5312L116.619 38.7597C117.876 36.886 119.542 35.4198 121.695 34.3433L119.906 30.7656L118.117 27.1879C114.77 28.8614 112.031 31.239 109.975 34.3028L113.297 36.5312ZM119.906 30.7656L121.695 34.3433C123.832 33.2749 126.287 32.7031 129.141 32.7031V28.7031V24.7031C125.181 24.7031 121.481 25.5064 118.117 27.1879L119.906 30.7656ZM129.141 28.7031V32.7031C132.663 32.7031 135.059 33.6755 136.761 35.2742L139.5 32.3594L142.239 29.4445C138.753 26.1683 134.243 24.7031 129.141 24.7031V28.7031ZM139.5 32.3594L136.78 35.2918C138.183 36.5942 139.391 39.2533 139.391 44.4062H143.391H147.391C147.391 38.3092 146.004 32.937 142.22 29.4269L139.5 32.3594ZM143.391 44.4062H139.391V73H143.391H147.391V44.4062H143.391ZM143.391 73V69H127.312V73V77H143.391V73ZM127.312 73H131.312V47.0781H127.312H123.312V73H127.312ZM127.312 47.0781H131.312C131.312 44.3589 130.82 41.2501 128.641 39.1412L125.859 42.0156L123.078 44.89C122.929 44.746 122.999 44.7191 123.104 45.088C123.212 45.4641 123.312 46.0995 123.312 47.0781H127.312ZM125.859 42.0156L128.688 39.1872C126.786 37.2852 124.299 36.56 121.805 36.5162L121.734 40.5156L121.664 44.515C122.732 44.5337 122.995 44.8085 123.031 44.8441L125.859 42.0156ZM121.734 40.5156V36.5156C119.224 36.5156 116.909 37.333 114.993 38.9902L117.609 42.0156L120.226 45.0411C120.622 44.6983 121.057 44.5156 121.734 44.5156V40.5156ZM117.609 42.0156L114.993 38.9902C113.354 40.4078 112.09 42.1716 111.163 44.1878L114.797 45.8594L118.431 47.531C118.941 46.4222 119.553 45.6234 120.226 45.0411L117.609 42.0156ZM114.797 45.8594H110.797V73H114.797H118.797V45.8594H114.797ZM114.797 73V69H98.7188V73V77H114.797V73ZM98.7188 73H102.719V47.0781H98.7188H94.7188V73H98.7188ZM98.7188 47.0781H102.719C102.719 44.3387 102.218 41.2643 100.094 39.1403L97.2656 41.9688L94.4372 44.7972C94.3189 44.6789 94.3992 44.684 94.508 45.0669C94.619 45.4572 94.7188 46.101 94.7188 47.0781H98.7188ZM97.2656 41.9688L100.094 39.1403C98.1568 37.203 95.6122 36.5156 93.0938 36.5156V40.5156V44.5156C94.2003 44.5156 94.437 44.797 94.4372 44.7972L97.2656 41.9688ZM93.0938 40.5156V36.5156C90.549 36.5156 88.2182 37.3721 86.3063 39.0773L88.9688 42.0625L91.6312 45.0477C92.0318 44.6904 92.451 44.5156 93.0938 44.5156V40.5156ZM88.9688 42.0625L86.3113 39.0729C84.7183 40.4888 83.4861 42.2414 82.5692 44.2346L86.2031 45.9062L89.8371 47.5779C90.3577 46.4461 90.9692 45.6362 91.6262 45.0521L88.9688 42.0625ZM86.2031 45.9062H82.2031V73H86.2031H90.2031V45.9062H86.2031ZM86.2031 73V69H70.2188V73V77H86.2031V73ZM150.828 73H146.828V77H150.828V73ZM150.828 29.875V25.875H146.828V29.875H150.828ZM167.094 29.875H171.094V25.875H167.094V29.875ZM167.094 73V77H171.094V73H167.094ZM152.328 8.96875L155.157 11.7972L155.171 11.7832L155.184 11.769L152.328 8.96875ZM165.641 8.92188L162.784 11.7216L162.798 11.736L162.812 11.7503L165.641 8.92188ZM165.547 20.5469L162.691 17.746L162.691 17.7466L165.547 20.5469ZM152.281 20.5469L149.37 23.2901L149.383 23.3042L149.397 23.3182L152.281 20.5469ZM150.828 73H154.828V29.875H150.828H146.828V73H150.828ZM150.828 29.875V33.875H167.094V29.875V25.875H150.828V29.875ZM167.094 29.875H163.094V73H167.094H171.094V29.875H167.094ZM167.094 73V69H150.828V73V77H167.094V73ZM149.984 14.6875H153.984C153.984 13.4767 154.359 12.5943 155.157 11.7972L152.328 8.96875L149.5 6.14032C147.172 8.46817 145.984 11.3983 145.984 14.6875H149.984ZM152.328 8.96875L155.184 11.769C155.786 11.1551 156.86 10.5781 159.031 10.5781V6.57812V2.57812C155.39 2.57812 151.995 3.59493 149.472 6.16846L152.328 8.96875ZM159.031 6.57812V10.5781C161.183 10.5781 162.22 11.1461 162.784 11.7216L165.641 8.92188L168.497 6.12216C165.999 3.57266 162.629 2.57812 159.031 2.57812V6.57812ZM165.641 8.92188L162.812 11.7503C163.539 12.4768 163.938 13.3561 163.938 14.6875H167.938H171.938C171.938 11.3939 170.805 8.42943 168.469 6.09345L165.641 8.92188ZM167.938 14.6875H163.938C163.938 15.924 163.55 16.8707 162.691 17.746L165.547 20.5469L168.403 23.3477C170.732 20.973 171.938 18.0135 171.938 14.6875H167.938ZM165.547 20.5469L162.691 17.7466C162.081 18.3686 161.016 18.9375 158.891 18.9375V22.9375V26.9375C162.515 26.9375 165.888 25.9127 168.403 23.3472L165.547 20.5469ZM158.891 22.9375V18.9375C156.761 18.9375 155.734 18.367 155.166 17.7756L152.281 20.5469L149.397 23.3182C151.891 25.9142 155.27 26.9375 158.891 26.9375V22.9375ZM152.281 20.5469L155.192 17.8037C154.377 16.9385 153.984 15.9736 153.984 14.6875H149.984H145.984C145.984 17.9639 147.123 20.9052 149.37 23.2901L152.281 20.5469ZM171.484 41.3594H167.484V45.3594H171.484V41.3594ZM171.484 29.875V25.875H167.484V29.875H171.484ZM203.359 29.875H207.359V25.875H203.359V29.875ZM203.359 41.3594V45.3594H207.359V41.3594H203.359ZM178.234 31.9844L175.161 29.4236L174.234 30.5362V31.9844H178.234ZM178.703 31.4219L181.776 33.9826L182.703 32.8701V31.4219H178.703ZM178.703 15.5312V11.5312H174.703V15.5312H178.703ZM193.938 15.5312H197.938V11.5312H193.938V15.5312ZM201.25 62.5938L201.767 66.5602L201.838 66.551L201.908 66.5393L201.25 62.5938ZM203.406 62.0312H207.406V56.3204L202.039 58.2721L203.406 62.0312ZM203.406 72.7656L204.505 76.6117L207.406 75.7828V72.7656H203.406ZM199.375 73.5156L198.828 69.5531L198.795 69.5578L198.762 69.5629L199.375 73.5156ZM181.891 70.5625L179.157 73.483L179.167 73.4924L179.178 73.5017L181.891 70.5625ZM171.484 41.3594H175.484V29.875H171.484H167.484V41.3594H171.484ZM171.484 29.875V33.875H203.359V29.875V25.875H171.484V29.875ZM203.359 29.875H199.359V41.3594H203.359H207.359V29.875H203.359ZM203.359 41.3594V37.3594H171.484V41.3594V45.3594H203.359V41.3594ZM178.234 59.4531H182.234V31.9844H178.234H174.234V59.4531H178.234ZM178.234 31.9844L181.307 34.5451L181.776 33.9826L178.703 31.4219L175.63 28.8611L175.161 29.4236L178.234 31.9844ZM178.703 31.4219H182.703V15.5312H178.703H174.703V31.4219H178.703ZM178.703 15.5312V19.5312H193.938V15.5312V11.5312H178.703V15.5312ZM193.938 15.5312H189.938V55.4219H193.938H197.938V15.5312H193.938ZM193.938 55.4219H189.938C189.938 57.1211 190.041 58.6839 190.305 60.0324C190.549 61.2838 191.021 62.8488 192.126 64.0859L195.109 61.4219L198.093 58.7578C198.416 59.12 198.303 59.2475 198.156 58.4989C198.029 57.8473 197.938 56.8476 197.938 55.4219H193.938ZM195.109 61.4219L192.126 64.0859C193.986 66.1699 196.624 66.7344 198.953 66.7344V62.7344V58.7344C198.372 58.7344 198.065 58.6607 197.949 58.6208C197.858 58.5897 197.959 58.608 198.093 58.7578L195.109 61.4219ZM198.953 62.7344V66.7344C199.918 66.7344 200.858 66.6788 201.767 66.5602L201.25 62.5938L200.733 58.6273C200.204 58.6962 199.613 58.7344 198.953 58.7344V62.7344ZM201.25 62.5938L201.908 66.5393C202.89 66.3756 203.847 66.1274 204.773 65.7904L203.406 62.0312L202.039 58.2721C201.591 58.4351 201.11 58.5619 200.592 58.6482L201.25 62.5938ZM203.406 62.0312H199.406V72.7656H203.406H207.406V62.0312H203.406ZM203.406 72.7656L202.307 68.9195C201.715 69.0888 200.601 69.3086 198.828 69.5531L199.375 73.5156L199.922 77.4781C201.774 77.2226 203.347 76.9425 204.505 76.6117L203.406 72.7656ZM199.375 73.5156L198.762 69.5629C197.229 69.8008 195.141 69.9375 192.438 69.9375V73.9375V77.9375C195.359 77.9375 197.896 77.793 199.988 77.4683L199.375 73.5156ZM192.438 73.9375V69.9375C188.46 69.9375 186.059 68.9664 184.604 67.6233L181.891 70.5625L179.178 73.5017C182.597 76.6586 187.228 77.9375 192.438 77.9375V73.9375ZM181.891 70.5625L184.624 67.642C183.341 66.4411 182.234 64.0572 182.234 59.4531H178.234H174.234C174.234 65.0991 175.566 70.1214 179.157 73.483L181.891 70.5625ZM242.516 73.1875L238.622 74.1023L239.346 77.1875H242.516V73.1875ZM226.438 4.75V0.75H221.389L222.544 5.66482L226.438 4.75ZM242.375 4.75L246.276 3.86753L245.571 0.75H242.375V4.75ZM252.172 48.0625L248.27 48.945L248.28 48.9889L248.291 49.0326L252.172 48.0625ZM252.781 51.9062L248.808 52.3647L249.216 55.9062H252.781V51.9062ZM252.969 51.9062V55.9062H256.38L256.919 52.5382L252.969 51.9062ZM253.344 49.7969L257.266 50.5813L257.27 50.5633L257.273 50.5453L253.344 49.7969ZM253.672 48.0625L249.781 47.136L249.758 47.2302L249.74 47.3253L253.672 48.0625ZM263.984 4.75V0.75H260.825L260.093 3.82352L263.984 4.75ZM278.75 4.75L282.63 3.77591L281.87 0.75H278.75V4.75ZM289.625 48.0625L293.556 47.3253L293.534 47.2061L293.505 47.0884L289.625 48.0625ZM289.906 49.75L285.951 50.3434L285.968 50.4593L285.992 50.574L289.906 49.75ZM290.281 51.9062L286.324 52.4924L286.83 55.9062H290.281V51.9062ZM290.469 51.9062V55.9062H294.049L294.444 52.348L290.469 51.9062ZM291.078 48.0625L294.943 49.0932L294.968 48.9995L294.988 48.9047L291.078 48.0625ZM300.406 4.75V0.75H297.176L296.496 3.90784L300.406 4.75ZM315.266 4.75L319.16 5.66482L320.314 0.75H315.266V4.75ZM299.188 73.1875V77.1875H302.357L303.081 74.1023L299.188 73.1875ZM282.875 73.1875L278.998 74.1724L279.764 77.1875H282.875V73.1875ZM271.859 29.8281L267.962 30.7276L267.972 30.7704L267.983 30.8131L271.859 29.8281ZM271.531 28.2344L267.596 28.9499L267.599 28.9664L267.602 28.9828L271.531 28.2344ZM271.156 26.0312L275.106 25.3993L274.567 22.0312H271.156V26.0312ZM270.969 26.0312V22.0312H267.558L267.019 25.3993L270.969 26.0312ZM270.266 29.8281L274.142 30.8131L274.161 30.74L274.177 30.6662L270.266 29.8281ZM259.25 73.1875V77.1875H262.361L263.127 74.1724L259.25 73.1875ZM242.516 73.1875L246.41 72.2727L230.331 3.83518L226.438 4.75L222.544 5.66482L238.622 74.1023L242.516 73.1875ZM226.438 4.75V8.75H242.375V4.75V0.75H226.438V4.75ZM242.375 4.75L238.474 5.63247L248.27 48.945L252.172 48.0625L256.073 47.18L246.276 3.86753L242.375 4.75ZM252.172 48.0625L248.291 49.0326C248.379 49.3843 248.465 49.818 248.544 50.3434L252.5 49.75L256.456 49.1566C256.347 48.432 256.215 47.7407 256.052 47.0924L252.172 48.0625ZM252.5 49.75L248.544 50.3434C248.63 50.9127 248.718 51.585 248.808 52.3647L252.781 51.9062L256.755 51.4478C256.657 50.6025 256.558 49.8373 256.456 49.1566L252.5 49.75ZM252.781 51.9062V55.9062H252.969V51.9062V47.9062H252.781V51.9062ZM252.969 51.9062L256.919 52.5382C257.037 51.7964 257.153 51.1454 257.266 50.5813L253.344 49.7969L249.421 49.0124C249.284 49.6984 249.15 50.4536 249.019 51.2743L252.969 51.9062ZM253.344 49.7969L257.273 50.5453C257.399 49.8864 257.509 49.3044 257.603 48.7997L253.672 48.0625L249.74 47.3253C249.648 47.8206 249.539 48.3949 249.414 49.0484L253.344 49.7969ZM253.672 48.0625L257.563 48.989L267.876 5.67648L263.984 4.75L260.093 3.82352L249.781 47.136L253.672 48.0625ZM263.984 4.75V8.75H278.75V4.75V0.75H263.984V4.75ZM278.75 4.75L274.87 5.72409L285.745 49.0366L289.625 48.0625L293.505 47.0884L282.63 3.77591L278.75 4.75ZM289.625 48.0625L285.694 48.7997C285.776 49.2421 285.862 49.7555 285.951 50.3434L289.906 49.75L293.862 49.1566C293.763 48.4945 293.661 47.8829 293.556 47.3253L289.625 48.0625ZM289.906 49.75L285.992 50.574C286.095 51.0646 286.207 51.6992 286.324 52.4924L290.281 51.9062L294.238 51.3201C294.106 50.4258 293.967 49.6229 293.82 48.926L289.906 49.75ZM290.281 51.9062V55.9062H290.469V51.9062V47.9062H290.281V51.9062ZM290.469 51.9062L294.444 52.348C294.534 51.539 294.622 50.8574 294.706 50.2965L290.75 49.7031L286.794 49.1098C286.691 49.7989 286.591 50.586 286.493 51.4645L290.469 51.9062ZM290.75 49.7031L294.706 50.2965C294.784 49.7774 294.866 49.3825 294.943 49.0932L291.078 48.0625L287.213 47.0318C287.04 47.68 286.904 48.3788 286.794 49.1098L290.75 49.7031ZM291.078 48.0625L294.988 48.9047L304.317 5.59216L300.406 4.75L296.496 3.90784L287.168 47.2203L291.078 48.0625ZM300.406 4.75V8.75H315.266V4.75V0.75H300.406V4.75ZM315.266 4.75L311.372 3.83518L295.294 72.2727L299.188 73.1875L303.081 74.1023L319.16 5.66482L315.266 4.75ZM299.188 73.1875V69.1875H282.875V73.1875V77.1875H299.188V73.1875ZM282.875 73.1875L286.752 72.2026L275.736 28.8432L271.859 29.8281L267.983 30.8131L278.998 74.1724L282.875 73.1875ZM271.859 29.8281L275.757 28.9287C275.68 28.5931 275.581 28.1178 275.461 27.4859L271.531 28.2344L267.602 28.9828C267.732 29.6635 267.852 30.2507 267.962 30.7276L271.859 29.8281ZM271.531 28.2344L275.467 27.5188C275.347 26.8625 275.227 26.1562 275.106 25.3993L271.156 26.0312L267.206 26.6632C267.335 27.4688 267.465 28.2313 267.596 28.9499L271.531 28.2344ZM271.156 26.0312V22.0312H270.969V26.0312V30.0312H271.156V26.0312ZM270.969 26.0312L267.019 25.3993C266.899 26.1485 266.781 26.8278 266.664 27.4391L270.594 28.1875L274.523 28.9359C274.657 28.2347 274.788 27.4765 274.919 26.6632L270.969 26.0312ZM270.594 28.1875L266.664 27.4391C266.543 28.0784 266.439 28.593 266.354 28.99L270.266 29.8281L274.177 30.6662C274.279 30.1883 274.395 29.6091 274.523 28.9359L270.594 28.1875ZM270.266 29.8281L266.389 28.8432L255.373 72.2026L259.25 73.1875L263.127 74.1724L274.142 30.8131L270.266 29.8281ZM259.25 73.1875V69.1875H242.516V73.1875V77.1875H259.25V73.1875ZM355.141 34.3281L352.324 37.168L352.329 37.1737L352.335 37.1795L355.141 34.3281ZM360.953 54.2969V58.2969H364.953V54.2969H360.953ZM322.938 54.2969H318.938V58.2969H322.938V54.2969ZM322.938 46.4219V42.4219H318.938V46.4219H322.938ZM345.531 46.4219V50.4219H349.531V46.4219H345.531ZM343.75 41.3594L340.814 44.0755L340.832 44.0951L340.85 44.1144L343.75 41.3594ZM332.453 42.2969L335.686 44.6528L335.695 44.6399L335.704 44.6269L332.453 42.2969ZM332.594 60.25L329.4 62.6584L329.422 62.6877L329.445 62.7166L332.594 60.25ZM347.172 58.5156L348.142 54.6351L345.112 53.8776L343.642 56.6333L347.172 58.5156ZM360.672 61.8906L364.418 63.2918L365.987 59.0964L361.642 58.0101L360.672 61.8906ZM314.5 52.0469H318.5V50.5469H314.5H310.5V52.0469H314.5ZM314.5 50.5469H318.5C318.5 44.7758 320.321 40.5686 323.714 37.4686L321.016 34.5156L318.318 31.5626C313.023 36.4002 310.5 42.8804 310.5 50.5469H314.5ZM321.016 34.5156L323.714 37.4686C327.15 34.3294 331.943 32.5625 338.547 32.5625V28.5625V24.5625C330.463 24.5625 323.569 26.7643 318.318 31.5626L321.016 34.5156ZM338.547 28.5625V32.5625C345.026 32.5625 349.412 34.2802 352.324 37.168L355.141 34.3281L357.958 31.4883C353.119 26.6885 346.443 24.5625 338.547 24.5625V28.5625ZM355.141 34.3281L352.335 37.1795C355.281 40.0774 356.953 44.1906 356.953 50.0312H360.953H364.953C364.953 42.5594 362.751 36.2039 357.946 31.4768L355.141 34.3281ZM360.953 50.0312H356.953V54.2969H360.953H364.953V50.0312H360.953ZM360.953 54.2969V50.2969H322.938V54.2969V58.2969H360.953V54.2969ZM322.938 54.2969H326.938V46.4219H322.938H318.938V54.2969H322.938ZM322.938 46.4219V50.4219H345.531V46.4219V42.4219H322.938V46.4219ZM345.531 46.4219H349.531V46.0938H345.531H341.531V46.4219H345.531ZM345.531 46.0938H349.531C349.531 43.28 348.621 40.6791 346.65 38.6044L343.75 41.3594L340.85 44.1144C341.254 44.5397 341.531 45.095 341.531 46.0938H345.531ZM343.75 41.3594L346.686 38.6432C344.503 36.283 341.456 35.4844 338.406 35.4844V39.4844V43.4844C340.169 43.4844 340.684 43.9357 340.814 44.0755L343.75 41.3594ZM338.406 39.4844V35.4844C334.697 35.4844 331.409 36.8874 329.202 39.9668L332.453 42.2969L335.704 44.6269C336.185 43.9564 336.866 43.4844 338.406 43.4844V39.4844ZM332.453 42.2969L329.221 39.9409C327.33 42.5349 326.438 45.5512 326.438 48.8125H330.438H334.438C334.438 47.0738 334.889 45.7463 335.686 44.6528L332.453 42.2969ZM330.438 48.8125H326.438V52.1406H330.438H334.438V48.8125H330.438ZM330.438 52.1406H326.438C326.438 56.1211 327.246 59.8015 329.4 62.6584L332.594 60.25L335.787 57.8416C335.067 56.886 334.438 55.1602 334.438 52.1406H330.438ZM332.594 60.25L329.445 62.7166C331.795 65.7168 335.157 67.0625 338.922 67.0625V63.0625V59.0625C337.187 59.0625 336.33 58.5332 335.743 57.7834L332.594 60.25ZM338.922 63.0625V67.0625C341.491 67.0625 343.966 66.5575 346.101 65.2667L344.031 61.8438L341.962 58.4208C341.409 58.755 340.478 59.0625 338.922 59.0625V63.0625ZM344.031 61.8438L346.101 65.2667C348.071 64.0756 349.618 62.4298 350.701 60.398L347.172 58.5156L343.642 56.6333C343.226 57.4139 342.679 57.9869 341.962 58.4208L344.031 61.8438ZM347.172 58.5156L346.202 62.3962L359.702 65.7712L360.672 61.8906L361.642 58.0101L348.142 54.6351L347.172 58.5156ZM360.672 61.8906L356.925 60.4895C355.792 63.5209 353.918 65.8181 351.234 67.5021L353.359 70.8906L355.485 74.2792C359.675 71.6506 362.677 67.9479 364.418 63.2918L360.672 61.8906ZM353.359 70.8906L351.234 67.5021C348.677 69.106 344.756 70.125 339.062 70.125V74.125V78.125C345.556 78.125 351.167 76.9878 355.485 74.2792L353.359 70.8906ZM339.062 74.125V70.125C331.903 70.125 326.95 68.3283 323.63 65.2746L320.922 68.2188L318.214 71.1629C323.456 75.9842 330.597 78.125 339.062 78.125V74.125ZM320.922 68.2188L323.63 65.2746C320.318 62.2292 318.5 57.9874 318.5 52.0469H314.5H310.5C310.5 59.7939 312.963 66.3333 318.214 71.1629L320.922 68.2188ZM366.516 73H362.516V77H366.516V73ZM366.516 29.875V25.875H362.516V29.875H366.516ZM382.781 29.875H386.781V25.875H382.781V29.875ZM382.781 73V77H386.781V73H382.781ZM368.016 8.96875L370.844 11.7972L370.858 11.7832L370.872 11.769L368.016 8.96875ZM381.328 8.92188L378.471 11.7216L378.485 11.736L378.5 11.7503L381.328 8.92188ZM381.234 20.5469L378.379 17.746L378.378 17.7466L381.234 20.5469ZM367.969 20.5469L365.058 23.2901L365.071 23.3042L365.084 23.3182L367.969 20.5469ZM366.516 73H370.516V29.875H366.516H362.516V73H366.516ZM366.516 29.875V33.875H382.781V29.875V25.875H366.516V29.875ZM382.781 29.875H378.781V73H382.781H386.781V29.875H382.781ZM382.781 73V69H366.516V73V77H382.781V73ZM365.672 14.6875H369.672C369.672 13.4767 370.047 12.5943 370.844 11.7972L368.016 8.96875L365.187 6.14032C362.859 8.46817 361.672 11.3983 361.672 14.6875H365.672ZM368.016 8.96875L370.872 11.769C371.474 11.1551 372.548 10.5781 374.719 10.5781V6.57812V2.57812C371.077 2.57812 367.682 3.59493 365.159 6.16846L368.016 8.96875ZM374.719 6.57812V10.5781C376.871 10.5781 377.907 11.1461 378.471 11.7216L381.328 8.92188L384.185 6.12216C381.686 3.57266 378.317 2.57812 374.719 2.57812V6.57812ZM381.328 8.92188L378.5 11.7503C379.226 12.4768 379.625 13.3561 379.625 14.6875H383.625H387.625C387.625 11.3939 386.493 8.42943 384.157 6.09345L381.328 8.92188ZM383.625 14.6875H379.625C379.625 15.924 379.237 16.8707 378.379 17.746L381.234 20.5469L384.09 23.3477C386.419 20.973 387.625 18.0135 387.625 14.6875H383.625ZM381.234 20.5469L378.378 17.7466C377.768 18.3686 376.703 18.9375 374.578 18.9375V22.9375V26.9375C378.203 26.9375 381.575 25.9127 384.091 23.3472L381.234 20.5469ZM374.578 22.9375V18.9375C372.448 18.9375 371.421 18.367 370.853 17.7756L367.969 20.5469L365.084 23.3182C367.579 25.9142 370.958 26.9375 374.578 26.9375V22.9375ZM367.969 20.5469L370.88 17.8037C370.065 16.9385 369.672 15.9736 369.672 14.6875H365.672H361.672C361.672 17.9639 362.81 20.9052 365.058 23.2901L367.969 20.5469ZM389.234 58.9844L389.274 54.9846L385.004 54.9419L385.241 59.2063L389.234 58.9844ZM403.297 59.125H407.297V55.1648L403.337 55.1252L403.297 59.125ZM405.266 64.2812L403.22 67.7184L403.25 67.7366L403.281 67.7542L405.266 64.2812ZM415.156 64.5156L417.246 67.926L417.261 67.9169L417.276 67.9076L415.156 64.5156ZM414.547 58.6562L412.694 62.2012L412.71 62.2096L412.726 62.218L414.547 58.6562ZM406.766 56.5469L406.046 60.4817L406.056 60.4834L406.766 56.5469ZM394.109 51.5781L391.468 54.5817L391.487 54.5985L391.506 54.6152L394.109 51.5781ZM395.656 32.0312L397.808 35.4035L397.815 35.3988L395.656 32.0312ZM425.891 32.125L423.665 35.4487L423.672 35.4532L423.678 35.4576L425.891 32.125ZM431.328 43.4688V47.4688H435.328V43.4688H431.328ZM417.312 43.4688H413.312V47.4688H417.312V43.4688ZM415.531 38.7344L413.354 42.0902L413.407 42.1241L413.46 42.1564L415.531 38.7344ZM406.438 38.4531L408.626 41.801L408.641 41.7912L408.656 41.7813L406.438 38.4531ZM415.062 45.625L414.353 49.5615L414.377 49.5659L414.402 49.57L415.062 45.625ZM427.016 70.4688L429.221 73.8056L429.231 73.7991L429.241 73.7926L427.016 70.4688ZM389.281 59.8281L393.279 59.6922L393.277 59.6492L393.275 59.6062L389.281 59.8281ZM389.234 58.9844L389.194 62.9842L403.257 63.1248L403.297 59.125L403.337 55.1252L389.274 54.9846L389.234 58.9844ZM403.297 59.125H399.297V60.0625H403.297H407.297V59.125H403.297ZM403.297 60.0625H399.297C399.297 62.9768 400.302 65.982 403.22 67.7184L405.266 64.2812L407.312 60.8441C407.311 60.844 407.314 60.8453 407.318 60.8481C407.322 60.8509 407.327 60.8549 407.334 60.8603C407.347 60.8716 407.363 60.8858 407.377 60.9023C407.41 60.9386 407.42 60.9618 407.414 60.9491C407.397 60.9127 407.297 60.6666 407.297 60.0625H403.297ZM405.266 64.2812L403.281 67.7542C405.409 68.9701 407.924 69.4062 410.516 69.4062V65.4062V61.4062C408.732 61.4062 407.747 61.0924 407.25 60.8083L405.266 64.2812ZM410.516 65.4062V69.4062C412.835 69.4062 415.307 69.1147 417.246 67.926L415.156 64.5156L413.066 61.1052C413.117 61.0737 412.986 61.1651 412.516 61.2553C412.059 61.3428 411.406 61.4062 410.516 61.4062V65.4062ZM415.156 64.5156L417.276 67.9076C419.595 66.4585 420.656 64.1156 420.656 61.6094H416.656H412.656C412.656 61.7563 412.63 61.6731 412.727 61.4857C412.773 61.396 412.833 61.3117 412.9 61.241C412.965 61.1717 413.018 61.1353 413.036 61.1236L415.156 64.5156ZM416.656 61.6094H420.656C420.656 58.4387 418.693 56.2831 416.367 55.0945L414.547 58.6562L412.726 62.218C413.027 62.3719 412.991 62.4221 412.874 62.2585C412.813 62.1731 412.752 62.0582 412.709 61.9224C412.667 61.7878 412.656 61.6767 412.656 61.6094H416.656ZM414.547 58.6562L416.4 55.1113C414.421 54.0767 411.266 53.2939 407.475 52.6104L406.766 56.5469L406.056 60.4834C409.89 61.1748 411.923 61.7983 412.694 62.2012L414.547 58.6562ZM406.766 56.5469L407.485 52.6121C401.935 51.5976 398.543 50.1099 396.713 48.5411L394.109 51.5781L391.506 54.6152C394.926 57.5463 399.971 59.3711 406.046 60.4817L406.766 56.5469ZM394.109 51.5781L396.751 48.5746C395.161 47.176 394.219 45.2072 394.219 42.1562H390.219H386.219C386.219 47.1053 387.87 51.4178 391.468 54.5817L394.109 51.5781ZM390.219 42.1562H394.219C394.219 39.0318 395.378 36.9533 397.808 35.4035L395.656 32.0312L393.505 28.659C388.684 31.7342 386.219 36.4057 386.219 42.1562H390.219ZM395.656 32.0312L397.815 35.3988C400.579 33.6268 404.811 32.5156 410.938 32.5156V28.5156V24.5156C404.001 24.5156 398.046 25.7482 393.498 28.6637L395.656 32.0312ZM410.938 28.5156V32.5156C416.875 32.5156 420.973 33.6464 423.665 35.4487L425.891 32.125L428.116 28.8013C423.62 25.7911 417.75 24.5156 410.938 24.5156V28.5156ZM425.891 32.125L423.678 35.4576C426.142 37.0927 427.328 39.2695 427.328 42.4844H431.328H435.328C435.328 36.6993 432.89 31.9698 428.103 28.7924L425.891 32.125ZM431.328 42.4844H427.328V43.4688H431.328H435.328V42.4844H431.328ZM431.328 43.4688V39.4688H417.312V43.4688V47.4688H431.328V43.4688ZM417.312 43.4688H421.312V42.4844H417.312H413.312V43.4688H417.312ZM417.312 42.4844H421.312C421.312 39.7571 420.33 36.9632 417.602 35.3124L415.531 38.7344L413.46 42.1564C413.44 42.144 413.394 42.1118 413.344 42.0567C413.294 42.0015 413.266 41.9519 413.254 41.9272C413.234 41.8849 413.312 42.0231 413.312 42.4844H417.312ZM415.531 38.7344L417.708 35.3785C415.626 34.0283 413.061 33.6094 410.516 33.6094V37.6094V41.6094C412.346 41.6094 413.124 41.9405 413.354 42.0902L415.531 38.7344ZM410.516 37.6094V33.6094C408.426 33.6094 406.074 33.8879 404.219 35.1249L406.438 38.4531L408.656 41.7813C408.525 41.869 408.55 41.8098 408.9 41.7374C409.239 41.6672 409.762 41.6094 410.516 41.6094V37.6094ZM406.438 38.4531L404.249 35.1052C402.045 36.5463 401.219 38.8391 401.219 41.0312H405.219H409.219C409.219 40.8852 409.244 40.9847 409.14 41.2056C409.087 41.3169 409.012 41.4363 408.913 41.5495C408.814 41.6623 408.712 41.7449 408.626 41.801L406.438 38.4531ZM405.219 41.0312H401.219C401.219 44.2774 403.485 46.2296 405.558 47.2193L407.281 43.6094L409.004 39.9995C408.664 39.8372 408.708 39.7872 408.858 39.9739C408.941 40.0775 409.04 40.2348 409.114 40.4428C409.189 40.6525 409.219 40.8568 409.219 41.0312H405.219ZM407.281 43.6094L405.558 47.2193C407.477 48.1349 410.566 48.8786 414.353 49.5615L415.062 45.625L415.772 41.6885C411.934 40.9964 409.836 40.3964 409.004 39.9995L407.281 43.6094ZM415.062 45.625L414.402 49.57C420.342 50.5652 423.997 52.0197 425.954 53.554L428.422 50.4062L430.89 47.2585C427.347 44.4803 422.095 42.7473 415.723 41.68L415.062 45.625ZM428.422 50.4062L425.954 53.554C427.658 54.8903 428.547 56.6409 428.547 59.2656H432.547H436.547C436.547 54.3903 434.686 50.2347 430.89 47.2585L428.422 50.4062ZM432.547 59.2656H428.547C428.547 63.129 427.214 65.5224 424.79 67.1449L427.016 70.4688L429.241 73.7926C434.192 70.4776 436.547 65.4023 436.547 59.2656H432.547ZM427.016 70.4688L424.81 67.1319C422.058 68.9508 417.609 70.125 410.938 70.125V74.125V78.125C418.329 78.125 424.598 76.8617 429.221 73.8056L427.016 70.4688ZM410.938 74.125V70.125C404.491 70.125 400.106 68.9481 397.306 67.0894L395.094 70.4219L392.881 73.7544C397.519 76.8332 403.697 78.125 410.938 78.125V74.125ZM395.094 70.4219L397.306 67.0894C394.701 65.3601 393.393 63.0401 393.279 59.6922L389.281 59.8281L385.284 59.9641C385.482 65.8036 388.049 70.5462 392.881 73.7544L395.094 70.4219ZM389.281 59.8281L393.275 59.6062L393.228 58.7625L389.234 58.9844L385.241 59.2063L385.287 60.05L389.281 59.8281Z" fill="#FFD8E4" mask="url(#path-1-outside-1_3_167)"/>
</svg>
