<svg width="351" height="97" viewBox="0 0 351 97" fill="none" xmlns="http://www.w3.org/2000/svg">
<mask id="path-1-outside-1_2064_23" maskUnits="userSpaceOnUse" x="-0.125" y="-0.75" width="352" height="98" fill="black">
<rect fill="white" x="-0.125" y="-0.75" width="352" height="98"/>
<path d="M4 72.25V4H32.6875C39.6562 4 44.9531 6.15625 48.5781 10.4688C52.2344 14.7812 54.0625 20.4219 54.0625 27.3906C54.0625 34.3594 52.2656 40 48.6719 44.3125C45.1094 48.625 39.6875 50.7812 32.4062 50.7812H20.5469V72.25H4ZM20.5469 39.5781H28.5625C31.9062 39.5781 34.2344 38.4375 35.5469 36.1562C36.8594 33.875 37.5156 31.0781 37.5156 27.7656C37.5156 24.4531 36.8594 21.6719 35.5469 19.4219C34.2344 17.1406 31.9062 16 28.5625 16H20.5469V39.5781ZM59.1562 72.25V29.125H75.3281V35.0781H75.375C76.625 33.1094 78.2188 31.5 80.1562 30.25C82.125 28.9688 84.375 28.3281 86.9062 28.3281C87.8438 28.3281 88.7344 28.3906 89.5781 28.5156C90.4219 28.6406 91 28.7656 91.3125 28.8906V40.5625C90.7188 40.3438 90 40.1875 89.1562 40.0938C88.3125 39.9688 87.3906 39.9062 86.3906 39.9062C84.3594 39.9062 82.3438 40.5469 80.3438 41.8281C78.3438 43.1094 76.75 44.8438 75.5625 47.0312V72.25H59.1562ZM92.4688 51.3438V49.7969C92.4688 43.2031 94.7031 37.8906 99.1719 33.8594C103.672 29.7969 109.641 27.7656 117.078 27.7656C124.547 27.7656 130.516 29.7969 134.984 33.8594C139.453 37.8906 141.688 43.2031 141.688 49.7969V51.3438C141.688 57.9688 139.453 63.2969 134.984 67.3281C130.516 71.3594 124.547 73.375 117.078 73.375C109.609 73.375 103.641 71.3594 99.1719 67.3281C94.7031 63.2969 92.4688 57.9688 92.4688 51.3438ZM108.594 49.2812V51.7656C108.594 54.8906 109.312 57.4219 110.75 59.3594C112.188 61.2969 114.281 62.2656 117.031 62.2656C119.812 62.2656 121.922 61.2969 123.359 59.3594C124.797 57.4219 125.516 54.8906 125.516 51.7656V49.2812C125.516 46.2188 124.797 43.75 123.359 41.875C121.922 39.9688 119.812 39.0156 117.031 39.0156C114.281 39.0156 112.188 39.9688 110.75 41.875C109.312 43.75 108.594 46.2188 108.594 49.2812ZM135.531 91.7969L135.25 80.1719C135.812 80.3281 136.594 80.5156 137.594 80.7344C138.594 80.9531 139.828 81.0625 141.297 81.0625C143.609 81.0625 145.266 80.4062 146.266 79.0938C147.297 77.8125 147.812 75.2969 147.812 71.5469V29.125H163.984V73.1406C163.984 79.9531 162.359 84.9219 159.109 88.0469C155.859 91.2031 151 92.7812 144.531 92.7812C142.938 92.7812 141.281 92.6719 139.562 92.4531C137.844 92.2344 136.5 92.0156 135.531 91.7969ZM146.969 13.9375C146.969 11.6875 147.75 9.78125 149.312 8.21875C150.875 6.625 153.094 5.82812 155.969 5.82812C158.875 5.82812 161.078 6.60938 162.578 8.17188C164.109 9.70313 164.875 11.625 164.875 13.9375C164.875 16.2188 164.094 18.1719 162.531 19.7969C160.969 21.3906 158.75 22.1875 155.875 22.1875C152.969 22.1875 150.75 21.3906 149.219 19.7969C147.719 18.1719 146.969 16.2188 146.969 13.9375ZM169.688 51.2969V49.7969C169.688 43.0781 171.859 37.7344 176.203 33.7656C180.547 29.7969 186.391 27.8125 193.734 27.8125C200.922 27.8125 206.453 29.7344 210.328 33.5781C214.203 37.3906 216.141 42.625 216.141 49.2812V53.5469H178.125V45.6719H200.719V45.3438C200.719 43.4375 200.125 41.8594 198.938 40.6094C197.781 39.3594 196 38.7344 193.594 38.7344C190.969 38.7344 188.984 39.6719 187.641 41.5469C186.297 43.3906 185.625 45.5625 185.625 48.0625V51.3906C185.625 54.8906 186.344 57.5938 187.781 59.5C189.25 61.375 191.359 62.3125 194.109 62.3125C196.172 62.3125 197.875 61.9062 199.219 61.0938C200.562 60.2812 201.609 59.1719 202.359 57.7656L215.859 61.1406C214.422 64.9844 211.984 67.9844 208.547 70.1406C205.109 72.2969 200.344 73.375 194.25 73.375C186.438 73.375 180.391 71.4062 176.109 67.4688C171.828 63.5312 169.688 58.1406 169.688 51.2969ZM219.5 51.3438V49.7969C219.5 42.8906 221.625 37.5 225.875 33.625C230.125 29.7188 235.859 27.7656 243.078 27.7656C250.328 27.7656 255.891 29.2812 259.766 32.3125C263.672 35.3125 265.75 39.7188 266 45.5312L266.047 46.5625H250.578V45.9531C250.578 43.7969 249.984 42.1094 248.797 40.8906C247.641 39.6406 245.922 39.0156 243.641 39.0156C241.078 39.0156 239.094 39.8906 237.688 41.6406C236.312 43.3594 235.625 45.8906 235.625 49.2344V51.8125C235.625 55.0625 236.297 57.625 237.641 59.5C239.016 61.3438 241 62.2656 243.594 62.2656C245.938 62.2656 247.688 61.6562 248.844 60.4375C250.031 59.2188 250.641 57.5469 250.672 55.4219V54.7656H266.094L266.047 55.8438C265.953 61.4688 263.938 65.7969 260 68.8281C256.062 71.8594 250.469 73.375 243.219 73.375C236 73.375 230.234 71.4062 225.922 67.4688C221.641 63.5312 219.5 58.1562 219.5 51.3438ZM268.047 40.6094V29.125H299.922V40.6094H268.047ZM274.797 58.7031V31.2344L275.266 30.6719V14.7812H290.5V54.6719C290.5 57.7969 290.891 59.7969 291.672 60.6719C292.453 61.5469 293.734 61.9844 295.516 61.9844C296.328 61.9844 297.094 61.9375 297.812 61.8438C298.562 61.7188 299.281 61.5312 299.969 61.2812V72.0156C299.094 72.2656 297.75 72.5156 295.938 72.7656C294.125 73.0469 291.812 73.1875 289 73.1875C284.406 73.1875 280.891 72.0625 278.453 69.8125C276.016 67.5312 274.797 63.8281 274.797 58.7031ZM303.609 58.2344L317.672 58.375V59.3125C317.672 61.3438 318.328 62.75 319.641 63.5312C320.953 64.2812 322.703 64.6562 324.891 64.6562C327.016 64.6562 328.562 64.3594 329.531 63.7656C330.531 63.1406 331.031 62.1719 331.031 60.8594C331.031 59.6094 330.328 58.625 328.922 57.9062C327.547 57.1875 324.953 56.4844 321.141 55.7969C315.328 54.7344 311.109 53.0781 308.484 50.8281C305.891 48.5469 304.594 45.4062 304.594 41.4062C304.594 36.9688 306.406 33.5938 310.031 31.2812C313.688 28.9375 318.781 27.7656 325.312 27.7656C331.688 27.7656 336.672 28.9688 340.266 31.375C343.891 33.7812 345.703 37.2344 345.703 41.7344V42.7188H331.688V41.7344C331.688 39.9531 331.094 38.7031 329.906 37.9844C328.75 37.2344 327.078 36.8594 324.891 36.8594C323.016 36.8594 321.656 37.1406 320.812 37.7031C320 38.2344 319.594 39.0938 319.594 40.2812C319.594 41.3438 320.281 42.2031 321.656 42.8594C323.031 43.5156 325.625 44.1875 329.438 44.875C335.594 45.9062 340.047 47.5 342.797 49.6562C345.547 51.8125 346.922 54.7656 346.922 58.5156C346.922 63.5156 345.078 67.25 341.391 69.7188C337.703 72.1562 332.344 73.375 325.312 73.375C318.469 73.375 313.188 72.1406 309.469 69.6719C305.75 67.2031 303.812 63.6719 303.656 59.0781L303.609 58.2344Z"/>
</mask>
<path d="M4 72.25V4H32.6875C39.6562 4 44.9531 6.15625 48.5781 10.4688C52.2344 14.7812 54.0625 20.4219 54.0625 27.3906C54.0625 34.3594 52.2656 40 48.6719 44.3125C45.1094 48.625 39.6875 50.7812 32.4062 50.7812H20.5469V72.25H4ZM20.5469 39.5781H28.5625C31.9062 39.5781 34.2344 38.4375 35.5469 36.1562C36.8594 33.875 37.5156 31.0781 37.5156 27.7656C37.5156 24.4531 36.8594 21.6719 35.5469 19.4219C34.2344 17.1406 31.9062 16 28.5625 16H20.5469V39.5781ZM59.1562 72.25V29.125H75.3281V35.0781H75.375C76.625 33.1094 78.2188 31.5 80.1562 30.25C82.125 28.9688 84.375 28.3281 86.9062 28.3281C87.8438 28.3281 88.7344 28.3906 89.5781 28.5156C90.4219 28.6406 91 28.7656 91.3125 28.8906V40.5625C90.7188 40.3438 90 40.1875 89.1562 40.0938C88.3125 39.9688 87.3906 39.9062 86.3906 39.9062C84.3594 39.9062 82.3438 40.5469 80.3438 41.8281C78.3438 43.1094 76.75 44.8438 75.5625 47.0312V72.25H59.1562ZM92.4688 51.3438V49.7969C92.4688 43.2031 94.7031 37.8906 99.1719 33.8594C103.672 29.7969 109.641 27.7656 117.078 27.7656C124.547 27.7656 130.516 29.7969 134.984 33.8594C139.453 37.8906 141.688 43.2031 141.688 49.7969V51.3438C141.688 57.9688 139.453 63.2969 134.984 67.3281C130.516 71.3594 124.547 73.375 117.078 73.375C109.609 73.375 103.641 71.3594 99.1719 67.3281C94.7031 63.2969 92.4688 57.9688 92.4688 51.3438ZM108.594 49.2812V51.7656C108.594 54.8906 109.312 57.4219 110.75 59.3594C112.188 61.2969 114.281 62.2656 117.031 62.2656C119.812 62.2656 121.922 61.2969 123.359 59.3594C124.797 57.4219 125.516 54.8906 125.516 51.7656V49.2812C125.516 46.2188 124.797 43.75 123.359 41.875C121.922 39.9688 119.812 39.0156 117.031 39.0156C114.281 39.0156 112.188 39.9688 110.75 41.875C109.312 43.75 108.594 46.2188 108.594 49.2812ZM135.531 91.7969L135.25 80.1719C135.812 80.3281 136.594 80.5156 137.594 80.7344C138.594 80.9531 139.828 81.0625 141.297 81.0625C143.609 81.0625 145.266 80.4062 146.266 79.0938C147.297 77.8125 147.812 75.2969 147.812 71.5469V29.125H163.984V73.1406C163.984 79.9531 162.359 84.9219 159.109 88.0469C155.859 91.2031 151 92.7812 144.531 92.7812C142.938 92.7812 141.281 92.6719 139.562 92.4531C137.844 92.2344 136.5 92.0156 135.531 91.7969ZM146.969 13.9375C146.969 11.6875 147.75 9.78125 149.312 8.21875C150.875 6.625 153.094 5.82812 155.969 5.82812C158.875 5.82812 161.078 6.60938 162.578 8.17188C164.109 9.70313 164.875 11.625 164.875 13.9375C164.875 16.2188 164.094 18.1719 162.531 19.7969C160.969 21.3906 158.75 22.1875 155.875 22.1875C152.969 22.1875 150.75 21.3906 149.219 19.7969C147.719 18.1719 146.969 16.2188 146.969 13.9375ZM169.688 51.2969V49.7969C169.688 43.0781 171.859 37.7344 176.203 33.7656C180.547 29.7969 186.391 27.8125 193.734 27.8125C200.922 27.8125 206.453 29.7344 210.328 33.5781C214.203 37.3906 216.141 42.625 216.141 49.2812V53.5469H178.125V45.6719H200.719V45.3438C200.719 43.4375 200.125 41.8594 198.938 40.6094C197.781 39.3594 196 38.7344 193.594 38.7344C190.969 38.7344 188.984 39.6719 187.641 41.5469C186.297 43.3906 185.625 45.5625 185.625 48.0625V51.3906C185.625 54.8906 186.344 57.5938 187.781 59.5C189.25 61.375 191.359 62.3125 194.109 62.3125C196.172 62.3125 197.875 61.9062 199.219 61.0938C200.562 60.2812 201.609 59.1719 202.359 57.7656L215.859 61.1406C214.422 64.9844 211.984 67.9844 208.547 70.1406C205.109 72.2969 200.344 73.375 194.25 73.375C186.438 73.375 180.391 71.4062 176.109 67.4688C171.828 63.5312 169.688 58.1406 169.688 51.2969ZM219.5 51.3438V49.7969C219.5 42.8906 221.625 37.5 225.875 33.625C230.125 29.7188 235.859 27.7656 243.078 27.7656C250.328 27.7656 255.891 29.2812 259.766 32.3125C263.672 35.3125 265.75 39.7188 266 45.5312L266.047 46.5625H250.578V45.9531C250.578 43.7969 249.984 42.1094 248.797 40.8906C247.641 39.6406 245.922 39.0156 243.641 39.0156C241.078 39.0156 239.094 39.8906 237.688 41.6406C236.312 43.3594 235.625 45.8906 235.625 49.2344V51.8125C235.625 55.0625 236.297 57.625 237.641 59.5C239.016 61.3438 241 62.2656 243.594 62.2656C245.938 62.2656 247.688 61.6562 248.844 60.4375C250.031 59.2188 250.641 57.5469 250.672 55.4219V54.7656H266.094L266.047 55.8438C265.953 61.4688 263.938 65.7969 260 68.8281C256.062 71.8594 250.469 73.375 243.219 73.375C236 73.375 230.234 71.4062 225.922 67.4688C221.641 63.5312 219.5 58.1562 219.5 51.3438ZM268.047 40.6094V29.125H299.922V40.6094H268.047ZM274.797 58.7031V31.2344L275.266 30.6719V14.7812H290.5V54.6719C290.5 57.7969 290.891 59.7969 291.672 60.6719C292.453 61.5469 293.734 61.9844 295.516 61.9844C296.328 61.9844 297.094 61.9375 297.812 61.8438C298.562 61.7188 299.281 61.5312 299.969 61.2812V72.0156C299.094 72.2656 297.75 72.5156 295.938 72.7656C294.125 73.0469 291.812 73.1875 289 73.1875C284.406 73.1875 280.891 72.0625 278.453 69.8125C276.016 67.5312 274.797 63.8281 274.797 58.7031ZM303.609 58.2344L317.672 58.375V59.3125C317.672 61.3438 318.328 62.75 319.641 63.5312C320.953 64.2812 322.703 64.6562 324.891 64.6562C327.016 64.6562 328.562 64.3594 329.531 63.7656C330.531 63.1406 331.031 62.1719 331.031 60.8594C331.031 59.6094 330.328 58.625 328.922 57.9062C327.547 57.1875 324.953 56.4844 321.141 55.7969C315.328 54.7344 311.109 53.0781 308.484 50.8281C305.891 48.5469 304.594 45.4062 304.594 41.4062C304.594 36.9688 306.406 33.5938 310.031 31.2812C313.688 28.9375 318.781 27.7656 325.312 27.7656C331.688 27.7656 336.672 28.9688 340.266 31.375C343.891 33.7812 345.703 37.2344 345.703 41.7344V42.7188H331.688V41.7344C331.688 39.9531 331.094 38.7031 329.906 37.9844C328.75 37.2344 327.078 36.8594 324.891 36.8594C323.016 36.8594 321.656 37.1406 320.812 37.7031C320 38.2344 319.594 39.0938 319.594 40.2812C319.594 41.3438 320.281 42.2031 321.656 42.8594C323.031 43.5156 325.625 44.1875 329.438 44.875C335.594 45.9062 340.047 47.5 342.797 49.6562C345.547 51.8125 346.922 54.7656 346.922 58.5156C346.922 63.5156 345.078 67.25 341.391 69.7188C337.703 72.1562 332.344 73.375 325.312 73.375C318.469 73.375 313.188 72.1406 309.469 69.6719C305.75 67.2031 303.812 63.6719 303.656 59.0781L303.609 58.2344Z" fill="#7D5260"/>
<path d="M4 72.25H0V76.25H4V72.25ZM4 4V0H0V4H4ZM48.5781 10.4688L45.5162 13.0426L45.5216 13.049L45.5271 13.0555L48.5781 10.4688ZM48.6719 44.3125L45.599 41.7518L45.5935 41.7584L45.588 41.765L48.6719 44.3125ZM20.5469 50.7812V46.7812H16.5469V50.7812H20.5469ZM20.5469 72.25V76.25H24.5469V72.25H20.5469ZM20.5469 39.5781H16.5469V43.5781H20.5469V39.5781ZM35.5469 19.4219L32.0798 21.4167L32.0857 21.427L32.0918 21.4374L35.5469 19.4219ZM20.5469 16V12H16.5469V16H20.5469ZM4 72.25H8V4H4H0V72.25H4ZM4 4V8H32.6875V4V0H4V4ZM32.6875 4V8C38.7804 8 42.8279 9.84443 45.5162 13.0426L48.5781 10.4688L51.6401 7.89494C47.0784 2.46807 40.5321 0 32.6875 0V4ZM48.5781 10.4688L45.5271 13.0555C48.4377 16.4885 50.0625 21.1411 50.0625 27.3906H54.0625H58.0625C58.0625 19.7027 56.0311 13.074 51.6292 7.88201L48.5781 10.4688ZM54.0625 27.3906H50.0625C50.0625 33.6565 48.4598 38.3188 45.599 41.7518L48.6719 44.3125L51.7448 46.8732C56.0714 41.6812 58.0625 35.0622 58.0625 27.3906H54.0625ZM48.6719 44.3125L45.588 41.765C43.0016 44.8959 38.8814 46.7812 32.4062 46.7812V50.7812V54.7812C40.4936 54.7812 47.2171 52.3541 51.7557 46.86L48.6719 44.3125ZM32.4062 50.7812V46.7812H20.5469V50.7812V54.7812H32.4062V50.7812ZM20.5469 50.7812H16.5469V72.25H20.5469H24.5469V50.7812H20.5469ZM20.5469 72.25V68.25H4V72.25V76.25H20.5469V72.25ZM20.5469 39.5781V43.5781H28.5625V39.5781V35.5781H20.5469V39.5781ZM28.5625 39.5781V43.5781C32.8888 43.5781 36.7891 42.0181 39.014 38.151L35.5469 36.1562L32.0798 34.1615C31.6796 34.8569 30.9237 35.5781 28.5625 35.5781V39.5781ZM35.5469 36.1562L39.014 38.151C40.755 35.125 41.5156 31.5998 41.5156 27.7656H37.5156H33.5156C33.5156 30.5565 32.9638 32.625 32.0798 34.1615L35.5469 36.1562ZM37.5156 27.7656H41.5156C41.5156 23.9341 40.7559 20.4131 39.002 17.4064L35.5469 19.4219L32.0918 21.4374C32.9628 22.9306 33.5156 24.9721 33.5156 27.7656H37.5156ZM35.5469 19.4219L39.014 17.4271C36.7891 13.5601 32.8888 12 28.5625 12V16V20C30.9237 20 31.6796 20.7212 32.0798 21.4167L35.5469 19.4219ZM28.5625 16V12H20.5469V16V20H28.5625V16ZM20.5469 16H16.5469V39.5781H20.5469H24.5469V16H20.5469ZM59.1562 72.25H55.1562V76.25H59.1562V72.25ZM59.1562 29.125V25.125H55.1562V29.125H59.1562ZM75.3281 29.125H79.3281V25.125H75.3281V29.125ZM75.3281 35.0781H71.3281V39.0781H75.3281V35.0781ZM75.375 35.0781V39.0781H77.5735L78.7519 37.2222L75.375 35.0781ZM80.1562 30.25L82.3248 33.6112L82.3314 33.6069L82.3381 33.6026L80.1562 30.25ZM91.3125 28.8906H95.3125V26.1825L92.7981 25.1767L91.3125 28.8906ZM91.3125 40.5625L89.9297 44.3159L95.3125 46.299V40.5625H91.3125ZM89.1562 40.0938L88.5701 44.0506L88.6421 44.0612L88.7145 44.0693L89.1562 40.0938ZM75.5625 47.0312L72.0471 45.1229L71.5625 46.0155V47.0312H75.5625ZM75.5625 72.25V76.25H79.5625V72.25H75.5625ZM59.1562 72.25H63.1562V29.125H59.1562H55.1562V72.25H59.1562ZM59.1562 29.125V33.125H75.3281V29.125V25.125H59.1562V29.125ZM75.3281 29.125H71.3281V35.0781H75.3281H79.3281V29.125H75.3281ZM75.3281 35.0781V39.0781H75.375V35.0781V31.0781H75.3281V35.0781ZM75.375 35.0781L78.7519 37.2222C79.6955 35.736 80.879 34.5439 82.3248 33.6112L80.1562 30.25L77.9877 26.8888C75.5585 28.4561 73.5545 30.4828 71.9981 32.9341L75.375 35.0781ZM80.1562 30.25L82.3381 33.6026C83.6069 32.7768 85.0868 32.3281 86.9062 32.3281V28.3281V24.3281C83.6632 24.3281 80.6431 25.1607 77.9744 26.8974L80.1562 30.25ZM86.9062 28.3281V32.3281C87.6666 32.3281 88.3602 32.3789 88.9919 32.4724L89.5781 28.5156L90.1643 24.5588C89.1085 24.4024 88.0209 24.3281 86.9062 24.3281V28.3281ZM89.5781 28.5156L88.9919 32.4724C89.3613 32.5272 89.6243 32.575 89.7992 32.6128C89.8852 32.6314 89.9318 32.6437 89.9473 32.648C89.9682 32.6539 89.9196 32.6416 89.8269 32.6045L91.3125 28.8906L92.7981 25.1767C91.9978 24.8566 90.9877 24.6808 90.1643 24.5588L89.5781 28.5156ZM91.3125 28.8906H87.3125V40.5625H91.3125H95.3125V28.8906H91.3125ZM91.3125 40.5625L92.6953 36.8091C91.715 36.448 90.6615 36.2364 89.598 36.1182L89.1562 40.0938L88.7145 44.0693C89.3385 44.1386 89.7225 44.2395 89.9297 44.3159L91.3125 40.5625ZM89.1562 40.0938L89.7424 36.1369C88.6749 35.9788 87.5543 35.9062 86.3906 35.9062V39.9062V43.9062C87.2269 43.9062 87.9501 43.9587 88.5701 44.0506L89.1562 40.0938ZM86.3906 39.9062V35.9062C83.4725 35.9062 80.719 36.8373 78.186 38.46L80.3438 41.8281L82.5015 45.1963C83.9685 44.2564 85.2463 43.9062 86.3906 43.9062V39.9062ZM80.3438 41.8281L78.186 38.46C75.5899 40.1231 73.5407 42.3715 72.0471 45.1229L75.5625 47.0312L79.0779 48.9396C79.9593 47.316 81.0976 46.0956 82.5015 45.1963L80.3438 41.8281ZM75.5625 47.0312H71.5625V72.25H75.5625H79.5625V47.0312H75.5625ZM75.5625 72.25V68.25H59.1562V72.25V76.25H75.5625V72.25ZM99.1719 33.8594L101.851 36.8295L101.852 36.8284L99.1719 33.8594ZM134.984 33.8594L132.294 36.8191L132.299 36.8243L132.305 36.8295L134.984 33.8594ZM123.359 41.875L120.166 44.2834L120.175 44.2961L120.185 44.3087L123.359 41.875ZM110.75 41.875L113.924 44.3087L113.934 44.2961L113.944 44.2834L110.75 41.875ZM92.4688 51.3438H96.4688V49.7969H92.4688H88.4688V51.3438H92.4688ZM92.4688 49.7969H96.4688C96.4688 44.2144 98.3091 40.0247 101.851 36.8295L99.1719 33.8594L96.4926 30.8893C91.0971 35.7565 88.4688 42.1919 88.4688 49.7969H92.4688ZM99.1719 33.8594L101.852 36.8284C105.46 33.5718 110.396 31.7656 117.078 31.7656V27.7656V23.7656C108.885 23.7656 101.884 26.022 96.4915 30.8903L99.1719 33.8594ZM117.078 27.7656V31.7656C123.798 31.7656 128.725 33.5749 132.294 36.8191L134.984 33.8594L137.675 30.8996C132.306 26.0189 125.296 23.7656 117.078 23.7656V27.7656ZM134.984 33.8594L132.305 36.8295C135.847 40.0247 137.688 44.2144 137.688 49.7969H141.688H145.688C145.688 42.1919 143.059 35.7565 137.664 30.8893L134.984 33.8594ZM141.688 49.7969H137.688V51.3438H141.688H145.688V49.7969H141.688ZM141.688 51.3438H137.688C137.688 56.9639 135.843 61.1667 132.305 64.358L134.984 67.3281L137.664 70.2982C143.063 65.4271 145.688 58.9736 145.688 51.3438H141.688ZM134.984 67.3281L132.305 64.358C128.737 67.5768 123.806 69.375 117.078 69.375V73.375V77.375C125.288 77.375 132.294 75.142 137.664 70.2982L134.984 67.3281ZM117.078 73.375V69.375C110.35 69.375 105.419 67.5768 101.851 64.358L99.1719 67.3281L96.4926 70.2982C101.862 75.142 108.868 77.375 117.078 77.375V73.375ZM99.1719 67.3281L101.851 64.358C98.3134 61.1667 96.4688 56.9639 96.4688 51.3438H92.4688H88.4688C88.4688 58.9736 91.0928 65.4271 96.4926 70.2982L99.1719 67.3281ZM108.594 49.2812H104.594V51.7656H108.594H112.594V49.2812H108.594ZM108.594 51.7656H104.594C104.594 55.4951 105.456 58.9366 107.538 61.7428L110.75 59.3594L113.962 56.976C113.169 55.9072 112.594 54.2862 112.594 51.7656H108.594ZM110.75 59.3594L107.538 61.7428C109.843 64.8497 113.218 66.2656 117.031 66.2656V62.2656V58.2656C115.345 58.2656 114.532 57.744 113.962 56.976L110.75 59.3594ZM117.031 62.2656V66.2656C120.858 66.2656 124.257 64.8624 126.572 61.7428L123.359 59.3594L120.147 56.976C119.587 57.7314 118.767 58.2656 117.031 58.2656V62.2656ZM123.359 59.3594L126.572 61.7428C128.654 58.9366 129.516 55.4951 129.516 51.7656H125.516H121.516C121.516 54.2862 120.94 55.9072 120.147 56.976L123.359 59.3594ZM125.516 51.7656H129.516V49.2812H125.516H121.516V51.7656H125.516ZM125.516 49.2812H129.516C129.516 45.6009 128.647 42.1974 126.534 39.4413L123.359 41.875L120.185 44.3087C120.947 45.3026 121.516 46.8366 121.516 49.2812H125.516ZM123.359 41.875L126.553 39.4666C124.229 36.3845 120.833 35.0156 117.031 35.0156V39.0156V43.0156C118.792 43.0156 119.615 43.553 120.166 44.2834L123.359 41.875ZM117.031 39.0156V35.0156C113.243 35.0156 109.871 36.3968 107.556 39.4666L110.75 41.875L113.944 44.2834C114.504 43.5407 115.32 43.0156 117.031 43.0156V39.0156ZM110.75 41.875L107.576 39.4413C105.463 42.1974 104.594 45.6009 104.594 49.2812H108.594H112.594C112.594 46.8366 113.162 45.3026 113.924 44.3087L110.75 41.875ZM135.531 91.7969L131.532 91.8936L131.608 95.0117L134.65 95.6986L135.531 91.7969ZM135.25 80.1719L136.321 76.3178L131.121 74.8734L131.251 80.2686L135.25 80.1719ZM146.266 79.0938L143.15 76.5857L143.116 76.6272L143.084 76.6696L146.266 79.0938ZM147.812 29.125V25.125H143.812V29.125H147.812ZM163.984 29.125H167.984V25.125H163.984V29.125ZM159.109 88.0469L156.337 85.1635L156.33 85.1704L156.323 85.1774L159.109 88.0469ZM149.312 8.21875L152.141 11.0472L152.155 11.0332L152.169 11.019L149.312 8.21875ZM162.578 8.17188L159.693 10.942L159.721 10.9714L159.75 11.0003L162.578 8.17188ZM162.531 19.7969L165.388 22.5972L165.401 22.5833L165.415 22.5693L162.531 19.7969ZM149.219 19.7969L146.28 22.51L146.307 22.5394L146.334 22.5682L149.219 19.7969ZM135.531 91.7969L139.53 91.7001L139.249 80.0751L135.25 80.1719L131.251 80.2686L131.532 91.8936L135.531 91.7969ZM135.25 80.1719L134.179 84.0259C134.847 84.2114 135.712 84.4172 136.739 84.642L137.594 80.7344L138.449 76.8268C137.476 76.614 136.778 76.4448 136.321 76.3178L135.25 80.1719ZM137.594 80.7344L136.739 84.642C138.112 84.9423 139.653 85.0625 141.297 85.0625V81.0625V77.0625C140.003 77.0625 139.076 76.964 138.449 76.8268L137.594 80.7344ZM141.297 81.0625V85.0625C144.326 85.0625 147.418 84.1815 149.447 81.5179L146.266 79.0938L143.084 76.6696C143.06 76.7009 143.007 76.7694 142.8 76.8516C142.558 76.9476 142.092 77.0625 141.297 77.0625V81.0625ZM146.266 79.0938L149.382 81.6018C150.459 80.263 151.023 78.6148 151.344 77.0493C151.675 75.4368 151.812 73.5804 151.812 71.5469H147.812H143.812C143.812 73.2633 143.692 74.5397 143.507 75.4429C143.313 76.393 143.103 76.6433 143.15 76.5857L146.266 79.0938ZM147.812 71.5469H151.812V29.125H147.812H143.812V71.5469H147.812ZM147.812 29.125V33.125H163.984V29.125V25.125H147.812V29.125ZM163.984 29.125H159.984V73.1406H163.984H167.984V29.125H163.984ZM163.984 73.1406H159.984C159.984 79.4162 158.479 83.1043 156.337 85.1635L159.109 88.0469L161.882 90.9302C166.24 86.7395 167.984 80.4901 167.984 73.1406H163.984ZM159.109 88.0469L156.323 85.1774C154.088 87.3479 150.406 88.7812 144.531 88.7812V92.7812V96.7812C151.594 96.7812 157.631 95.0584 161.896 90.9164L159.109 88.0469ZM144.531 92.7812V88.7812C143.12 88.7812 141.633 88.6844 140.068 88.4851L139.562 92.4531L139.057 96.4211C140.929 96.6594 142.755 96.7812 144.531 96.7812V92.7812ZM139.562 92.4531L140.068 88.4851C138.397 88.2725 137.198 88.0726 136.412 87.8951L135.531 91.7969L134.65 95.6986C135.802 95.9586 137.29 96.1962 139.057 96.4211L139.562 92.4531ZM146.969 13.9375H150.969C150.969 12.7267 151.344 11.8443 152.141 11.0472L149.312 8.21875L146.484 5.39032C144.156 7.71817 142.969 10.6483 142.969 13.9375H146.969ZM149.312 8.21875L152.169 11.019C152.779 10.3971 153.844 9.82812 155.969 9.82812V5.82812V1.82812C152.344 1.82812 148.971 2.85293 146.456 5.41846L149.312 8.21875ZM155.969 5.82812V9.82812C158.172 9.82812 159.178 10.406 159.693 10.942L162.578 8.17188L165.464 5.40175C162.978 2.8128 159.578 1.82812 155.969 1.82812V5.82812ZM162.578 8.17188L159.75 11.0003C160.476 11.7268 160.875 12.6061 160.875 13.9375H164.875H168.875C168.875 10.6439 167.743 7.67943 165.407 5.34345L162.578 8.17188ZM164.875 13.9375H160.875C160.875 15.1988 160.484 16.1545 159.648 17.0244L162.531 19.7969L165.415 22.5693C167.703 20.1893 168.875 17.2387 168.875 13.9375H164.875ZM162.531 19.7969L159.675 16.9966C159.065 17.6186 158 18.1875 155.875 18.1875V22.1875V26.1875C159.5 26.1875 162.872 25.1627 165.388 22.5972L162.531 19.7969ZM155.875 22.1875V18.1875C153.699 18.1875 152.664 17.6089 152.103 17.0256L149.219 19.7969L146.334 22.5682C148.836 25.1724 152.238 26.1875 155.875 26.1875V22.1875ZM149.219 19.7969L152.158 17.0838C151.363 16.223 150.969 15.2482 150.969 13.9375H146.969H142.969C142.969 17.1893 144.074 20.1208 146.28 22.51L149.219 19.7969ZM210.328 33.5781L207.511 36.418L207.517 36.4237L207.523 36.4295L210.328 33.5781ZM216.141 53.5469V57.5469H220.141V53.5469H216.141ZM178.125 53.5469H174.125V57.5469H178.125V53.5469ZM178.125 45.6719V41.6719H174.125V45.6719H178.125ZM200.719 45.6719V49.6719H204.719V45.6719H200.719ZM198.938 40.6094L196.001 43.3255L196.019 43.3451L196.038 43.3644L198.938 40.6094ZM187.641 41.5469L190.873 43.9028L190.883 43.8899L190.892 43.877L187.641 41.5469ZM187.781 59.5L184.588 61.9084L184.61 61.9377L184.632 61.9666L187.781 59.5ZM202.359 57.7656L203.33 53.8851L200.3 53.1276L198.83 55.8833L202.359 57.7656ZM215.859 61.1406L219.606 62.5418L221.175 58.3464L216.83 57.2601L215.859 61.1406ZM169.688 51.2969H173.688V49.7969H169.688H165.688V51.2969H169.688ZM169.688 49.7969H173.688C173.688 44.0258 175.508 39.8186 178.901 36.7186L176.203 33.7656L173.505 30.8126C168.21 35.6502 165.688 42.1304 165.688 49.7969H169.688ZM176.203 33.7656L178.901 36.7186C182.337 33.5794 187.131 31.8125 193.734 31.8125V27.8125V23.8125C185.65 23.8125 178.757 26.0143 173.505 30.8126L176.203 33.7656ZM193.734 27.8125V31.8125C200.213 31.8125 204.6 33.5302 207.511 36.418L210.328 33.5781L213.145 30.7383C208.306 25.9385 201.631 23.8125 193.734 23.8125V27.8125ZM210.328 33.5781L207.523 36.4295C210.468 39.3274 212.141 43.4406 212.141 49.2812H216.141H220.141C220.141 41.8094 217.938 35.4539 213.133 30.7268L210.328 33.5781ZM216.141 49.2812H212.141V53.5469H216.141H220.141V49.2812H216.141ZM216.141 53.5469V49.5469H178.125V53.5469V57.5469H216.141V53.5469ZM178.125 53.5469H182.125V45.6719H178.125H174.125V53.5469H178.125ZM178.125 45.6719V49.6719H200.719V45.6719V41.6719H178.125V45.6719ZM200.719 45.6719H204.719V45.3438H200.719H196.719V45.6719H200.719ZM200.719 45.3438H204.719C204.719 42.53 203.808 39.9291 201.837 37.8544L198.938 40.6094L196.038 43.3644C196.442 43.7897 196.719 44.345 196.719 45.3438H200.719ZM198.938 40.6094L201.874 37.8932C199.691 35.533 196.643 34.7344 193.594 34.7344V38.7344V42.7344C195.357 42.7344 195.872 43.1857 196.001 43.3255L198.938 40.6094ZM193.594 38.7344V34.7344C189.884 34.7344 186.596 36.1374 184.389 39.2168L187.641 41.5469L190.892 43.877C191.372 43.2064 192.053 42.7344 193.594 42.7344V38.7344ZM187.641 41.5469L184.408 39.1909C182.518 41.7849 181.625 44.8012 181.625 48.0625H185.625H189.625C189.625 46.3238 190.076 44.9963 190.873 43.9028L187.641 41.5469ZM185.625 48.0625H181.625V51.3906H185.625H189.625V48.0625H185.625ZM185.625 51.3906H181.625C181.625 55.3711 182.433 59.0515 184.588 61.9084L187.781 59.5L190.975 57.0916C190.254 56.136 189.625 54.4102 189.625 51.3906H185.625ZM187.781 59.5L184.632 61.9666C186.982 64.9668 190.344 66.3125 194.109 66.3125V62.3125V58.3125C192.374 58.3125 191.518 57.7832 190.93 57.0334L187.781 59.5ZM194.109 62.3125V66.3125C196.678 66.3125 199.154 65.8075 201.288 64.5167L199.219 61.0938L197.149 57.6708C196.596 58.005 195.665 58.3125 194.109 58.3125V62.3125ZM199.219 61.0938L201.288 64.5167C203.258 63.3256 204.805 61.6798 205.889 59.648L202.359 57.7656L198.83 55.8833C198.414 56.6639 197.867 57.2369 197.149 57.6708L199.219 61.0938ZM202.359 57.7656L201.389 61.6462L214.889 65.0212L215.859 61.1406L216.83 57.2601L203.33 53.8851L202.359 57.7656ZM215.859 61.1406L212.113 59.7395C210.979 62.7709 209.106 65.0681 206.421 66.7521L208.547 70.1406L210.672 73.5292C214.863 70.9006 217.865 67.1979 219.606 62.5418L215.859 61.1406ZM208.547 70.1406L206.421 66.7521C203.864 68.356 199.944 69.375 194.25 69.375V73.375V77.375C200.744 77.375 206.354 76.2378 210.672 73.5292L208.547 70.1406ZM194.25 73.375V69.375C187.09 69.375 182.137 67.5783 178.817 64.5246L176.109 67.4688L173.402 70.4129C178.644 75.2342 185.785 77.375 194.25 77.375V73.375ZM176.109 67.4688L178.817 64.5246C175.506 61.4792 173.688 57.2374 173.688 51.2969H169.688H165.688C165.688 59.0439 168.15 65.5833 173.402 70.4129L176.109 67.4688ZM225.875 33.625L228.57 36.5808L228.576 36.5754L228.582 36.57L225.875 33.625ZM259.766 32.3125L257.301 35.4631L257.315 35.474L257.329 35.4849L259.766 32.3125ZM266 45.5312L262.004 45.7031L262.004 45.7129L266 45.5312ZM266.047 46.5625V50.5625H270.233L270.043 46.3809L266.047 46.5625ZM250.578 46.5625H246.578V50.5625H250.578V46.5625ZM248.797 40.8906L245.86 43.6068L245.896 43.6449L245.932 43.6821L248.797 40.8906ZM237.688 41.6406L234.569 39.1351L234.564 39.1418L237.688 41.6406ZM237.641 59.5L234.389 61.8301L234.411 61.8609L234.434 61.8913L237.641 59.5ZM248.844 60.4375L245.979 57.646L245.96 57.6651L245.942 57.6845L248.844 60.4375ZM250.672 55.4219L254.671 55.4807L254.672 55.4513V55.4219H250.672ZM250.672 54.7656V50.7656H246.672V54.7656H250.672ZM266.094 54.7656L270.09 54.9394L270.271 50.7656H266.094V54.7656ZM266.047 55.8438L262.051 55.67L262.048 55.7235L262.047 55.7771L266.047 55.8438ZM225.922 67.4688L223.214 70.4129L223.219 70.4178L223.225 70.4227L225.922 67.4688ZM219.5 51.3438H223.5V49.7969H219.5H215.5V51.3438H219.5ZM219.5 49.7969H223.5C223.5 43.7702 225.317 39.547 228.57 36.5808L225.875 33.625L223.18 30.6692C217.933 35.453 215.5 42.011 215.5 49.7969H219.5ZM225.875 33.625L228.582 36.57C231.921 33.5008 236.6 31.7656 243.078 31.7656V27.7656V23.7656C235.119 23.7656 228.329 25.9367 223.168 30.68L225.875 33.625ZM243.078 27.7656V31.7656C249.842 31.7656 254.394 33.1892 257.301 35.4631L259.766 32.3125L262.23 29.1619C257.387 25.3733 250.814 23.7656 243.078 23.7656V27.7656ZM259.766 32.3125L257.329 35.4849C260.124 37.6315 261.794 40.8351 262.004 45.7031L266 45.5312L269.996 45.3594C269.706 38.6024 267.219 32.9935 262.202 29.1401L259.766 32.3125ZM266 45.5312L262.004 45.7129L262.051 46.7441L266.047 46.5625L270.043 46.3809L269.996 45.3496L266 45.5312ZM266.047 46.5625V42.5625H250.578V46.5625V50.5625H266.047V46.5625ZM250.578 46.5625H254.578V45.9531H250.578H246.578V46.5625H250.578ZM250.578 45.9531H254.578C254.578 43.0458 253.758 40.2506 251.662 38.0992L248.797 40.8906L245.932 43.6821C246.211 43.9681 246.578 44.548 246.578 45.9531H250.578ZM248.797 40.8906L251.733 38.1745C249.588 35.8549 246.641 35.0156 243.641 35.0156V39.0156V43.0156C245.202 43.0156 245.694 43.4264 245.86 43.6068L248.797 40.8906ZM243.641 39.0156V35.0156C240.059 35.0156 236.848 36.2992 234.569 39.1351L237.688 41.6406L240.806 44.1462C241.339 43.4821 242.097 43.0156 243.641 43.0156V39.0156ZM237.688 41.6406L234.564 39.1418C232.393 41.8553 231.625 45.4318 231.625 49.2344H235.625H239.625C239.625 46.3495 240.232 44.8634 240.811 44.1394L237.688 41.6406ZM235.625 49.2344H231.625V51.8125H235.625H239.625V49.2344H235.625ZM235.625 51.8125H231.625C231.625 55.5674 232.396 59.0487 234.389 61.8301L237.641 59.5L240.892 57.1699C240.198 56.2013 239.625 54.5576 239.625 51.8125H235.625ZM237.641 59.5L234.434 61.8913C236.668 64.887 239.922 66.2656 243.594 66.2656V62.2656V58.2656C242.078 58.2656 241.363 57.8005 240.847 57.1087L237.641 59.5ZM243.594 62.2656V66.2656C246.591 66.2656 249.575 65.4787 251.746 63.1905L248.844 60.4375L245.942 57.6845C245.8 57.8338 245.284 58.2656 243.594 58.2656V62.2656ZM248.844 60.4375L251.709 63.229C253.776 61.1069 254.629 58.3615 254.671 55.4807L250.672 55.4219L246.672 55.3631C246.652 56.7323 246.286 57.3306 245.979 57.646L248.844 60.4375ZM250.672 55.4219H254.672V54.7656H250.672H246.672V55.4219H250.672ZM250.672 54.7656V58.7656H266.094V54.7656V50.7656H250.672V54.7656ZM266.094 54.7656L262.098 54.5919L262.051 55.67L266.047 55.8438L270.043 56.0175L270.09 54.9394L266.094 54.7656ZM266.047 55.8438L262.047 55.7771C261.971 60.3665 260.397 63.4747 257.56 65.6586L260 68.8281L262.44 71.9977C267.478 68.119 269.935 62.571 270.046 55.9104L266.047 55.8438ZM260 68.8281L257.56 65.6586C254.579 67.9538 249.977 69.375 243.219 69.375V73.375V77.375C250.961 77.375 257.546 75.765 262.44 71.9977L260 68.8281ZM243.219 73.375V69.375C236.752 69.375 232.031 67.6298 228.619 64.5148L225.922 67.4688L223.225 70.4227C228.438 75.1827 235.248 77.375 243.219 77.375V73.375ZM225.922 67.4688L228.63 64.5246C225.314 61.4756 223.5 57.2467 223.5 51.3438H219.5H215.5C215.5 59.0658 217.967 65.5869 223.214 70.4129L225.922 67.4688ZM268.047 40.6094H264.047V44.6094H268.047V40.6094ZM268.047 29.125V25.125H264.047V29.125H268.047ZM299.922 29.125H303.922V25.125H299.922V29.125ZM299.922 40.6094V44.6094H303.922V40.6094H299.922ZM274.797 31.2344L271.724 28.6736L270.797 29.7862V31.2344H274.797ZM275.266 30.6719L278.339 33.2326L279.266 32.1201V30.6719H275.266ZM275.266 14.7812V10.7812H271.266V14.7812H275.266ZM290.5 14.7812H294.5V10.7812H290.5V14.7812ZM297.812 61.8438L298.33 65.8102L298.4 65.801L298.47 65.7893L297.812 61.8438ZM299.969 61.2812H303.969V55.5705L298.602 57.5221L299.969 61.2812ZM299.969 72.0156L301.068 75.8617L303.969 75.0328V72.0156H299.969ZM295.938 72.7656L295.391 68.8031L295.358 68.8078L295.324 68.8129L295.938 72.7656ZM278.453 69.8125L275.72 72.733L275.73 72.7424L275.74 72.7517L278.453 69.8125ZM268.047 40.6094H272.047V29.125H268.047H264.047V40.6094H268.047ZM268.047 29.125V33.125H299.922V29.125V25.125H268.047V29.125ZM299.922 29.125H295.922V40.6094H299.922H303.922V29.125H299.922ZM299.922 40.6094V36.6094H268.047V40.6094V44.6094H299.922V40.6094ZM274.797 58.7031H278.797V31.2344H274.797H270.797V58.7031H274.797ZM274.797 31.2344L277.87 33.7951L278.339 33.2326L275.266 30.6719L272.193 28.1111L271.724 28.6736L274.797 31.2344ZM275.266 30.6719H279.266V14.7812H275.266H271.266V30.6719H275.266ZM275.266 14.7812V18.7812H290.5V14.7812V10.7812H275.266V14.7812ZM290.5 14.7812H286.5V54.6719H290.5H294.5V14.7812H290.5ZM290.5 54.6719H286.5C286.5 56.3711 286.604 57.9339 286.867 59.2824C287.112 60.5338 287.584 62.0988 288.688 63.3359L291.672 60.6719L294.656 58.0078C294.979 58.37 294.865 58.4975 294.719 57.7489C294.592 57.0973 294.5 56.0976 294.5 54.6719H290.5ZM291.672 60.6719L288.688 63.3359C290.549 65.4199 293.186 65.9844 295.516 65.9844V61.9844V57.9844C294.934 57.9844 294.628 57.9107 294.511 57.8709C294.42 57.8397 294.522 57.858 294.656 58.0078L291.672 60.6719ZM295.516 61.9844V65.9844C296.481 65.9844 297.42 65.9288 298.33 65.8102L297.812 61.8438L297.295 57.8773C296.767 57.9462 296.175 57.9844 295.516 57.9844V61.9844ZM297.812 61.8438L298.47 65.7893C299.452 65.6256 300.409 65.3774 301.336 65.0404L299.969 61.2812L298.602 57.5221C298.153 57.6851 297.673 57.8119 297.155 57.8982L297.812 61.8438ZM299.969 61.2812H295.969V72.0156H299.969H303.969V61.2812H299.969ZM299.969 72.0156L298.87 68.1695C298.278 68.3388 297.164 68.5586 295.391 68.8031L295.938 72.7656L296.484 76.7281C298.336 76.4726 299.91 76.1925 301.068 75.8617L299.969 72.0156ZM295.938 72.7656L295.324 68.8129C293.791 69.0508 291.703 69.1875 289 69.1875V73.1875V77.1875C291.922 77.1875 294.459 77.043 296.551 76.7183L295.938 72.7656ZM289 73.1875V69.1875C285.022 69.1875 282.621 68.2164 281.166 66.8733L278.453 69.8125L275.74 72.7517C279.16 75.9086 283.79 77.1875 289 77.1875V73.1875ZM278.453 69.8125L281.186 66.892C279.903 65.6911 278.797 63.3072 278.797 58.7031H274.797H270.797C270.797 64.3491 272.128 69.3714 275.72 72.733L278.453 69.8125ZM303.609 58.2344L303.649 54.2346L299.379 54.1919L299.616 58.4563L303.609 58.2344ZM317.672 58.375H321.672V54.4148L317.712 54.3752L317.672 58.375ZM319.641 63.5312L317.595 66.9684L317.625 66.9866L317.656 67.0042L319.641 63.5312ZM329.531 63.7656L331.621 67.176L331.636 67.1669L331.651 67.1576L329.531 63.7656ZM328.922 57.9062L327.069 61.4512L327.085 61.4596L327.101 61.468L328.922 57.9062ZM321.141 55.7969L320.421 59.7317L320.431 59.7334L321.141 55.7969ZM308.484 50.8281L305.843 53.8317L305.862 53.8485L305.881 53.8652L308.484 50.8281ZM310.031 31.2812L312.183 34.6535L312.19 34.6488L310.031 31.2812ZM340.266 31.375L338.04 34.6987L338.047 34.7032L338.053 34.7076L340.266 31.375ZM345.703 42.7188V46.7188H349.703V42.7188H345.703ZM331.688 42.7188H327.688V46.7188H331.688V42.7188ZM329.906 37.9844L327.729 41.3402L327.782 41.3741L327.835 41.4064L329.906 37.9844ZM320.812 37.7031L323.001 41.051L323.016 41.0412L323.031 41.0313L320.812 37.7031ZM329.438 44.875L328.728 48.8115L328.752 48.8159L328.777 48.82L329.438 44.875ZM341.391 69.7188L343.596 73.0556L343.606 73.0491L343.616 73.0426L341.391 69.7188ZM303.656 59.0781L307.654 58.9421L307.652 58.8992L307.65 58.8562L303.656 59.0781ZM303.609 58.2344L303.569 62.2342L317.632 62.3748L317.672 58.375L317.712 54.3752L303.649 54.2346L303.609 58.2344ZM317.672 58.375H313.672V59.3125H317.672H321.672V58.375H317.672ZM317.672 59.3125H313.672C313.672 62.2268 314.677 65.232 317.595 66.9684L319.641 63.5312L321.687 60.0941C321.686 60.094 321.689 60.0953 321.693 60.0981C321.697 60.1009 321.702 60.1049 321.709 60.1103C321.722 60.1216 321.738 60.1358 321.752 60.1523C321.785 60.1886 321.795 60.2118 321.789 60.1991C321.772 60.1627 321.672 59.9166 321.672 59.3125H317.672ZM319.641 63.5312L317.656 67.0042C319.784 68.2202 322.299 68.6562 324.891 68.6562V64.6562V60.6562C323.107 60.6562 322.122 60.3423 321.625 60.0583L319.641 63.5312ZM324.891 64.6562V68.6562C327.21 68.6562 329.682 68.3647 331.621 67.176L329.531 63.7656L327.441 60.3552C327.492 60.3237 327.361 60.4151 326.891 60.5053C326.434 60.5928 325.781 60.6562 324.891 60.6562V64.6562ZM329.531 63.7656L331.651 67.1576C333.97 65.7085 335.031 63.3655 335.031 60.8594H331.031H327.031C327.031 61.0063 327.005 60.9231 327.102 60.7357C327.148 60.646 327.208 60.5617 327.275 60.491C327.34 60.4217 327.393 60.3853 327.411 60.3736L329.531 63.7656ZM331.031 60.8594H335.031C335.031 57.6887 333.068 55.5331 330.742 54.3445L328.922 57.9062L327.101 61.468C327.402 61.6219 327.366 61.6721 327.249 61.5085C327.188 61.4231 327.127 61.3082 327.084 61.1724C327.042 61.0378 327.031 60.9267 327.031 60.8594H331.031ZM328.922 57.9062L330.775 54.3613C328.796 53.3267 325.641 52.5439 321.85 51.8604L321.141 55.7969L320.431 59.7334C324.265 60.4248 326.298 61.0483 327.069 61.4512L328.922 57.9062ZM321.141 55.7969L321.86 51.8621C316.31 50.8476 312.918 49.3599 311.088 47.7911L308.484 50.8281L305.881 53.8652C309.301 56.7963 314.346 58.6211 320.421 59.7317L321.141 55.7969ZM308.484 50.8281L311.126 47.8246C309.536 46.426 308.594 44.4572 308.594 41.4062H304.594H300.594C300.594 46.3553 302.245 50.6678 305.843 53.8317L308.484 50.8281ZM304.594 41.4062H308.594C308.594 38.2818 309.753 36.2033 312.183 34.6535L310.031 31.2812L307.88 27.909C303.059 30.9842 300.594 35.6557 300.594 41.4062H304.594ZM310.031 31.2812L312.19 34.6488C314.954 32.8768 319.186 31.7656 325.312 31.7656V27.7656V23.7656C318.376 23.7656 312.421 24.9982 307.873 27.9137L310.031 31.2812ZM325.312 27.7656V31.7656C331.25 31.7656 335.348 32.8964 338.04 34.6987L340.266 31.375L342.491 28.0513C337.995 25.0411 332.125 23.7656 325.312 23.7656V27.7656ZM340.266 31.375L338.053 34.7076C340.517 36.3427 341.703 38.5195 341.703 41.7344H345.703H349.703C349.703 35.9493 347.265 31.2198 342.478 28.0424L340.266 31.375ZM345.703 41.7344H341.703V42.7188H345.703H349.703V41.7344H345.703ZM345.703 42.7188V38.7188H331.688V42.7188V46.7188H345.703V42.7188ZM331.688 42.7188H335.688V41.7344H331.688H327.688V42.7188H331.688ZM331.688 41.7344H335.688C335.688 39.0071 334.705 36.2132 331.977 34.5624L329.906 37.9844L327.835 41.4064C327.815 41.394 327.769 41.3618 327.719 41.3067C327.669 41.2515 327.641 41.2019 327.629 41.1772C327.609 41.1349 327.688 41.2731 327.688 41.7344H331.688ZM329.906 37.9844L332.083 34.6285C330.001 33.2783 327.436 32.8594 324.891 32.8594V36.8594V40.8594C326.721 40.8594 327.499 41.1905 327.729 41.3402L329.906 37.9844ZM324.891 36.8594V32.8594C322.801 32.8594 320.449 33.1379 318.594 34.3749L320.812 37.7031L323.031 41.0313C322.9 41.119 322.925 41.0598 323.275 40.9874C323.614 40.9172 324.137 40.8594 324.891 40.8594V36.8594ZM320.812 37.7031L318.624 34.3552C316.42 35.7963 315.594 38.0891 315.594 40.2812H319.594H323.594C323.594 40.1352 323.619 40.2347 323.515 40.4556C323.462 40.5669 323.387 40.6863 323.288 40.7995C323.189 40.9123 323.087 40.9949 323.001 41.051L320.812 37.7031ZM319.594 40.2812H315.594C315.594 43.5274 317.86 45.4796 319.933 46.4693L321.656 42.8594L323.379 39.2495C323.039 39.0872 323.083 39.0372 323.233 39.2239C323.316 39.3276 323.415 39.4848 323.489 39.6928C323.564 39.9025 323.594 40.1068 323.594 40.2812H319.594ZM321.656 42.8594L319.933 46.4693C321.852 47.3849 324.941 48.1286 328.728 48.8115L329.438 44.875L330.147 40.9385C326.309 40.2464 324.211 39.6464 323.379 39.2495L321.656 42.8594ZM329.438 44.875L328.777 48.82C334.717 49.8152 338.372 51.2697 340.329 52.804L342.797 49.6562L345.265 46.5085C341.722 43.7303 336.47 41.9973 330.098 40.93L329.438 44.875ZM342.797 49.6562L340.329 52.804C342.033 54.1403 342.922 55.8909 342.922 58.5156H346.922H350.922C350.922 53.6403 349.061 49.4847 345.265 46.5085L342.797 49.6562ZM346.922 58.5156H342.922C342.922 62.379 341.589 64.7724 339.165 66.3949L341.391 69.7188L343.616 73.0426C348.567 69.7276 350.922 64.6523 350.922 58.5156H346.922ZM341.391 69.7188L339.185 66.3819C336.433 68.2008 331.984 69.375 325.312 69.375V73.375V77.375C332.704 77.375 338.973 76.1117 343.596 73.0556L341.391 69.7188ZM325.312 73.375V69.375C318.866 69.375 314.481 68.1981 311.681 66.3394L309.469 69.6719L307.256 73.0044C311.894 76.0832 318.072 77.375 325.312 77.375V73.375ZM309.469 69.6719L311.681 66.3394C309.076 64.6101 307.768 62.2901 307.654 58.9421L303.656 59.0781L299.659 59.2141C299.857 65.0536 302.424 69.7962 307.256 73.0044L309.469 69.6719ZM303.656 59.0781L307.65 58.8562L307.603 58.0125L303.609 58.2344L299.616 58.4563L299.662 59.3L303.656 59.0781Z" fill="#FFD8E4" mask="url(#path-1-outside-1_2064_23)"/>
</svg>
