<svg width="366" height="79" viewBox="0 0 366 79" fill="none" xmlns="http://www.w3.org/2000/svg">
<mask id="path-1-outside-1_2064_23" maskUnits="userSpaceOnUse" x="-0.125" y="-0.578125" width="366" height="80" fill="black">
<rect fill="white" x="-0.125" y="-0.578125" width="366" height="80"/>
<path d="M4 73.4219V5.17188H32.6875C39.6562 5.17188 44.9531 7.32812 48.5781 11.6406C52.2344 15.9531 54.0625 21.5937 54.0625 28.5625C54.0625 35.5312 52.2656 41.1719 48.6719 45.4844C45.1094 49.7969 39.6875 51.9531 32.4062 51.9531H20.5469V73.4219H4ZM20.5469 40.75H28.5625C31.9062 40.75 34.2344 39.6094 35.5469 37.3281C36.8594 35.0469 37.5156 32.25 37.5156 28.9375C37.5156 25.625 36.8594 22.8438 35.5469 20.5938C34.2344 18.3125 31.9062 17.1719 28.5625 17.1719H20.5469V40.75ZM56.1562 52.5156V50.9688C56.1562 44.375 58.3906 39.0625 62.8594 35.0312C67.3594 30.9688 73.3281 28.9375 80.7656 28.9375C88.2344 28.9375 94.2031 30.9688 98.6719 35.0312C103.141 39.0625 105.375 44.375 105.375 50.9688V52.5156C105.375 59.1406 103.141 64.4688 98.6719 68.5C94.2031 72.5312 88.2344 74.5469 80.7656 74.5469C73.2969 74.5469 67.3281 72.5312 62.8594 68.5C58.3906 64.4688 56.1562 59.1406 56.1562 52.5156ZM72.2812 50.4531V52.9375C72.2812 56.0625 73 58.5938 74.4375 60.5312C75.875 62.4688 77.9688 63.4375 80.7188 63.4375C83.5 63.4375 85.6094 62.4688 87.0469 60.5312C88.4844 58.5938 89.2031 56.0625 89.2031 52.9375V50.4531C89.2031 47.3906 88.4844 44.9219 87.0469 43.0469C85.6094 41.1406 83.5 40.1875 80.7188 40.1875C77.9688 40.1875 75.875 41.1406 74.4375 43.0469C73 44.9219 72.2812 47.3906 72.2812 50.4531ZM110.938 73.4219V30.2969H127.109V36.25H127.156C128.406 34.2812 130 32.6719 131.938 31.4219C133.906 30.1406 136.156 29.5 138.688 29.5C139.625 29.5 140.516 29.5625 141.359 29.6875C142.203 29.8125 142.781 29.9375 143.094 30.0625V41.7344C142.5 41.5156 141.781 41.3594 140.938 41.2656C140.094 41.1406 139.172 41.0781 138.172 41.0781C136.141 41.0781 134.125 41.7188 132.125 43C130.125 44.2812 128.531 46.0156 127.344 48.2031V73.4219H110.938ZM145.516 41.7812V30.2969H177.391V41.7812H145.516ZM152.266 59.875V32.4062L152.734 31.8438V15.9531H167.969V55.8438C167.969 58.9688 168.359 60.9688 169.141 61.8438C169.922 62.7188 171.203 63.1562 172.984 63.1562C173.797 63.1562 174.562 63.1094 175.281 63.0156C176.031 62.8906 176.75 62.7031 177.438 62.4531V73.1875C176.562 73.4375 175.219 73.6875 173.406 73.9375C171.594 74.2188 169.281 74.3594 166.469 74.3594C161.875 74.3594 158.359 73.2344 155.922 70.9844C153.484 68.7031 152.266 65 152.266 59.875ZM185.391 73.4219V22.75C185.391 16.5938 187.234 11.9375 190.922 8.78125C194.609 5.59375 199.641 4 206.016 4C207.359 4 208.578 4.07813 209.672 4.23438C210.797 4.39062 211.969 4.59375 213.188 4.84375L212.531 16.4219C211.969 16.3281 211.344 16.2188 210.656 16.0938C210 15.9687 209.234 15.9062 208.359 15.9062C205.984 15.9062 204.156 16.625 202.875 18.0625C201.625 19.5 201 21.8438 201 25.0938V32.875L201.234 33.3438V73.4219H185.391ZM178.547 41.7812V30.2969H188.344H189.281H209.719V41.7812H178.547ZM211.344 52.5156V50.9688C211.344 44.375 213.578 39.0625 218.047 35.0312C222.547 30.9688 228.516 28.9375 235.953 28.9375C243.422 28.9375 249.391 30.9688 253.859 35.0312C258.328 39.0625 260.562 44.375 260.562 50.9688V52.5156C260.562 59.1406 258.328 64.4688 253.859 68.5C249.391 72.5312 243.422 74.5469 235.953 74.5469C228.484 74.5469 222.516 72.5312 218.047 68.5C213.578 64.4688 211.344 59.1406 211.344 52.5156ZM227.469 50.4531V52.9375C227.469 56.0625 228.188 58.5938 229.625 60.5312C231.062 62.4688 233.156 63.4375 235.906 63.4375C238.688 63.4375 240.797 62.4688 242.234 60.5312C243.672 58.5938 244.391 56.0625 244.391 52.9375V50.4531C244.391 47.3906 243.672 44.9219 242.234 43.0469C240.797 41.1406 238.688 40.1875 235.906 40.1875C233.156 40.1875 231.062 41.1406 229.625 43.0469C228.188 44.9219 227.469 47.3906 227.469 50.4531ZM266.125 73.4219V5.03125H282.297V73.4219H266.125ZM290.016 73.4219V30.2969H306.281V73.4219H290.016ZM289.172 15.1094C289.172 12.8594 289.953 10.9531 291.516 9.39062C293.078 7.79688 295.312 7 298.219 7C301.094 7 303.297 7.78125 304.828 9.34375C306.359 10.875 307.125 12.7969 307.125 15.1094C307.125 17.3906 306.328 19.3437 304.734 20.9688C303.172 22.5625 300.953 23.3594 298.078 23.3594C295.203 23.3594 293 22.5625 291.469 20.9688C289.938 19.3437 289.172 17.3906 289.172 15.1094ZM312.031 52.5156V50.9688C312.031 44.375 314.266 39.0625 318.734 35.0312C323.234 30.9688 329.203 28.9375 336.641 28.9375C344.109 28.9375 350.078 30.9688 354.547 35.0312C359.016 39.0625 361.25 44.375 361.25 50.9688V52.5156C361.25 59.1406 359.016 64.4688 354.547 68.5C350.078 72.5312 344.109 74.5469 336.641 74.5469C329.172 74.5469 323.203 72.5312 318.734 68.5C314.266 64.4688 312.031 59.1406 312.031 52.5156ZM328.156 50.4531V52.9375C328.156 56.0625 328.875 58.5938 330.312 60.5312C331.75 62.4688 333.844 63.4375 336.594 63.4375C339.375 63.4375 341.484 62.4688 342.922 60.5312C344.359 58.5938 345.078 56.0625 345.078 52.9375V50.4531C345.078 47.3906 344.359 44.9219 342.922 43.0469C341.484 41.1406 339.375 40.1875 336.594 40.1875C333.844 40.1875 331.75 41.1406 330.312 43.0469C328.875 44.9219 328.156 47.3906 328.156 50.4531Z"/>
</mask>
<path d="M4 73.4219V5.17188H32.6875C39.6562 5.17188 44.9531 7.32812 48.5781 11.6406C52.2344 15.9531 54.0625 21.5937 54.0625 28.5625C54.0625 35.5312 52.2656 41.1719 48.6719 45.4844C45.1094 49.7969 39.6875 51.9531 32.4062 51.9531H20.5469V73.4219H4ZM20.5469 40.75H28.5625C31.9062 40.75 34.2344 39.6094 35.5469 37.3281C36.8594 35.0469 37.5156 32.25 37.5156 28.9375C37.5156 25.625 36.8594 22.8438 35.5469 20.5938C34.2344 18.3125 31.9062 17.1719 28.5625 17.1719H20.5469V40.75ZM56.1562 52.5156V50.9688C56.1562 44.375 58.3906 39.0625 62.8594 35.0312C67.3594 30.9688 73.3281 28.9375 80.7656 28.9375C88.2344 28.9375 94.2031 30.9688 98.6719 35.0312C103.141 39.0625 105.375 44.375 105.375 50.9688V52.5156C105.375 59.1406 103.141 64.4688 98.6719 68.5C94.2031 72.5312 88.2344 74.5469 80.7656 74.5469C73.2969 74.5469 67.3281 72.5312 62.8594 68.5C58.3906 64.4688 56.1562 59.1406 56.1562 52.5156ZM72.2812 50.4531V52.9375C72.2812 56.0625 73 58.5938 74.4375 60.5312C75.875 62.4688 77.9688 63.4375 80.7188 63.4375C83.5 63.4375 85.6094 62.4688 87.0469 60.5312C88.4844 58.5938 89.2031 56.0625 89.2031 52.9375V50.4531C89.2031 47.3906 88.4844 44.9219 87.0469 43.0469C85.6094 41.1406 83.5 40.1875 80.7188 40.1875C77.9688 40.1875 75.875 41.1406 74.4375 43.0469C73 44.9219 72.2812 47.3906 72.2812 50.4531ZM110.938 73.4219V30.2969H127.109V36.25H127.156C128.406 34.2812 130 32.6719 131.938 31.4219C133.906 30.1406 136.156 29.5 138.688 29.5C139.625 29.5 140.516 29.5625 141.359 29.6875C142.203 29.8125 142.781 29.9375 143.094 30.0625V41.7344C142.5 41.5156 141.781 41.3594 140.938 41.2656C140.094 41.1406 139.172 41.0781 138.172 41.0781C136.141 41.0781 134.125 41.7188 132.125 43C130.125 44.2812 128.531 46.0156 127.344 48.2031V73.4219H110.938ZM145.516 41.7812V30.2969H177.391V41.7812H145.516ZM152.266 59.875V32.4062L152.734 31.8438V15.9531H167.969V55.8438C167.969 58.9688 168.359 60.9688 169.141 61.8438C169.922 62.7188 171.203 63.1562 172.984 63.1562C173.797 63.1562 174.562 63.1094 175.281 63.0156C176.031 62.8906 176.75 62.7031 177.438 62.4531V73.1875C176.562 73.4375 175.219 73.6875 173.406 73.9375C171.594 74.2188 169.281 74.3594 166.469 74.3594C161.875 74.3594 158.359 73.2344 155.922 70.9844C153.484 68.7031 152.266 65 152.266 59.875ZM185.391 73.4219V22.75C185.391 16.5938 187.234 11.9375 190.922 8.78125C194.609 5.59375 199.641 4 206.016 4C207.359 4 208.578 4.07813 209.672 4.23438C210.797 4.39062 211.969 4.59375 213.188 4.84375L212.531 16.4219C211.969 16.3281 211.344 16.2188 210.656 16.0938C210 15.9687 209.234 15.9062 208.359 15.9062C205.984 15.9062 204.156 16.625 202.875 18.0625C201.625 19.5 201 21.8438 201 25.0938V32.875L201.234 33.3438V73.4219H185.391ZM178.547 41.7812V30.2969H188.344H189.281H209.719V41.7812H178.547ZM211.344 52.5156V50.9688C211.344 44.375 213.578 39.0625 218.047 35.0312C222.547 30.9688 228.516 28.9375 235.953 28.9375C243.422 28.9375 249.391 30.9688 253.859 35.0312C258.328 39.0625 260.562 44.375 260.562 50.9688V52.5156C260.562 59.1406 258.328 64.4688 253.859 68.5C249.391 72.5312 243.422 74.5469 235.953 74.5469C228.484 74.5469 222.516 72.5312 218.047 68.5C213.578 64.4688 211.344 59.1406 211.344 52.5156ZM227.469 50.4531V52.9375C227.469 56.0625 228.188 58.5938 229.625 60.5312C231.062 62.4688 233.156 63.4375 235.906 63.4375C238.688 63.4375 240.797 62.4688 242.234 60.5312C243.672 58.5938 244.391 56.0625 244.391 52.9375V50.4531C244.391 47.3906 243.672 44.9219 242.234 43.0469C240.797 41.1406 238.688 40.1875 235.906 40.1875C233.156 40.1875 231.062 41.1406 229.625 43.0469C228.188 44.9219 227.469 47.3906 227.469 50.4531ZM266.125 73.4219V5.03125H282.297V73.4219H266.125ZM290.016 73.4219V30.2969H306.281V73.4219H290.016ZM289.172 15.1094C289.172 12.8594 289.953 10.9531 291.516 9.39062C293.078 7.79688 295.312 7 298.219 7C301.094 7 303.297 7.78125 304.828 9.34375C306.359 10.875 307.125 12.7969 307.125 15.1094C307.125 17.3906 306.328 19.3437 304.734 20.9688C303.172 22.5625 300.953 23.3594 298.078 23.3594C295.203 23.3594 293 22.5625 291.469 20.9688C289.938 19.3437 289.172 17.3906 289.172 15.1094ZM312.031 52.5156V50.9688C312.031 44.375 314.266 39.0625 318.734 35.0312C323.234 30.9688 329.203 28.9375 336.641 28.9375C344.109 28.9375 350.078 30.9688 354.547 35.0312C359.016 39.0625 361.25 44.375 361.25 50.9688V52.5156C361.25 59.1406 359.016 64.4688 354.547 68.5C350.078 72.5312 344.109 74.5469 336.641 74.5469C329.172 74.5469 323.203 72.5312 318.734 68.5C314.266 64.4688 312.031 59.1406 312.031 52.5156ZM328.156 50.4531V52.9375C328.156 56.0625 328.875 58.5938 330.312 60.5312C331.75 62.4688 333.844 63.4375 336.594 63.4375C339.375 63.4375 341.484 62.4688 342.922 60.5312C344.359 58.5938 345.078 56.0625 345.078 52.9375V50.4531C345.078 47.3906 344.359 44.9219 342.922 43.0469C341.484 41.1406 339.375 40.1875 336.594 40.1875C333.844 40.1875 331.75 41.1406 330.312 43.0469C328.875 44.9219 328.156 47.3906 328.156 50.4531Z" fill="#7D5260"/>
<path d="M4 73.4219H0V77.4219H4V73.4219ZM4 5.17188V1.17188H0V5.17188H4ZM48.5781 11.6406L45.5162 14.2144L45.5216 14.2209L45.5271 14.2274L48.5781 11.6406ZM48.6719 45.4844L45.599 42.9236L45.5935 42.9302L45.588 42.9368L48.6719 45.4844ZM20.5469 51.9531V47.9531H16.5469V51.9531H20.5469ZM20.5469 73.4219V77.4219H24.5469V73.4219H20.5469ZM20.5469 40.75H16.5469V44.75H20.5469V40.75ZM35.5469 20.5938L32.0798 22.5885L32.0857 22.5989L32.0918 22.6092L35.5469 20.5938ZM20.5469 17.1719V13.1719H16.5469V17.1719H20.5469ZM4 73.4219H8V5.17188H4H0V73.4219H4ZM4 5.17188V9.17188H32.6875V5.17188V1.17188H4V5.17188ZM32.6875 5.17188V9.17188C38.7804 9.17188 42.8279 11.0163 45.5162 14.2144L48.5781 11.6406L51.6401 9.06682C47.0784 3.63995 40.5321 1.17188 32.6875 1.17188V5.17188ZM48.5781 11.6406L45.5271 14.2274C48.4377 17.6604 50.0625 22.3129 50.0625 28.5625H54.0625H58.0625C58.0625 20.8746 56.0311 14.2459 51.6292 9.05388L48.5781 11.6406ZM54.0625 28.5625H50.0625C50.0625 34.8284 48.4598 39.4906 45.599 42.9236L48.6719 45.4844L51.7448 48.0451C56.0714 42.8531 58.0625 36.2341 58.0625 28.5625H54.0625ZM48.6719 45.4844L45.588 42.9368C43.0016 46.0678 38.8814 47.9531 32.4062 47.9531V51.9531V55.9531C40.4936 55.9531 47.2171 53.526 51.7557 48.0319L48.6719 45.4844ZM32.4062 51.9531V47.9531H20.5469V51.9531V55.9531H32.4062V51.9531ZM20.5469 51.9531H16.5469V73.4219H20.5469H24.5469V51.9531H20.5469ZM20.5469 73.4219V69.4219H4V73.4219V77.4219H20.5469V73.4219ZM20.5469 40.75V44.75H28.5625V40.75V36.75H20.5469V40.75ZM28.5625 40.75V44.75C32.8888 44.75 36.7891 43.1899 39.014 39.3229L35.5469 37.3281L32.0798 35.3333C31.6796 36.0288 30.9237 36.75 28.5625 36.75V40.75ZM35.5469 37.3281L39.014 39.3229C40.755 36.2969 41.5156 32.7717 41.5156 28.9375H37.5156H33.5156C33.5156 31.7283 32.9638 33.7968 32.0798 35.3333L35.5469 37.3281ZM37.5156 28.9375H41.5156C41.5156 25.106 40.7559 21.585 39.002 18.5783L35.5469 20.5938L32.0918 22.6092C32.9628 24.1025 33.5156 26.144 33.5156 28.9375H37.5156ZM35.5469 20.5938L39.014 18.599C36.7891 14.7319 32.8888 13.1719 28.5625 13.1719V17.1719V21.1719C30.9237 21.1719 31.6796 21.8931 32.0798 22.5885L35.5469 20.5938ZM28.5625 17.1719V13.1719H20.5469V17.1719V21.1719H28.5625V17.1719ZM20.5469 17.1719H16.5469V40.75H20.5469H24.5469V17.1719H20.5469ZM62.8594 35.0312L65.5387 38.0013L65.5398 38.0003L62.8594 35.0312ZM98.6719 35.0312L95.9812 37.991L95.9869 37.9962L95.9926 38.0013L98.6719 35.0312ZM87.0469 43.0469L83.8532 45.4552L83.8628 45.468L83.8724 45.4806L87.0469 43.0469ZM74.4375 43.0469L77.6119 45.4806L77.6216 45.468L77.6312 45.4552L74.4375 43.0469ZM56.1562 52.5156H60.1562V50.9688H56.1562H52.1562V52.5156H56.1562ZM56.1562 50.9688H60.1562C60.1562 45.3862 61.9966 41.1966 65.5387 38.0013L62.8594 35.0312L60.1801 32.0612C54.7846 36.9284 52.1562 43.3638 52.1562 50.9688H56.1562ZM62.8594 35.0312L65.5398 38.0003C69.1472 34.7437 74.0833 32.9375 80.7656 32.9375V28.9375V24.9375C72.5729 24.9375 65.5716 27.1938 60.179 32.0622L62.8594 35.0312ZM80.7656 28.9375V32.9375C87.4854 32.9375 92.4125 34.7468 95.9812 37.991L98.6719 35.0312L101.363 32.0715C95.9937 27.1907 88.9833 24.9375 80.7656 24.9375V28.9375ZM98.6719 35.0312L95.9926 38.0013C99.5346 41.1966 101.375 45.3862 101.375 50.9688H105.375H109.375C109.375 43.3638 106.747 36.9284 101.351 32.0612L98.6719 35.0312ZM105.375 50.9688H101.375V52.5156H105.375H109.375V50.9688H105.375ZM105.375 52.5156H101.375C101.375 58.1358 99.5303 62.3385 95.9926 65.5299L98.6719 68.5L101.351 71.4701C106.751 66.599 109.375 60.1455 109.375 52.5156H105.375ZM98.6719 68.5L95.9926 65.5299C92.4246 68.7486 87.4933 70.5469 80.7656 70.5469V74.5469V78.5469C88.9755 78.5469 95.9817 76.3139 101.351 71.4701L98.6719 68.5ZM80.7656 74.5469V70.5469C74.038 70.5469 69.1067 68.7486 65.5387 65.5299L62.8594 68.5L60.1801 71.4701C65.5496 76.3139 72.5558 78.5469 80.7656 78.5469V74.5469ZM62.8594 68.5L65.5387 65.5299C62.0009 62.3385 60.1562 58.1358 60.1562 52.5156H56.1562H52.1562C52.1562 60.1455 54.7803 66.599 60.1801 71.4701L62.8594 68.5ZM72.2812 50.4531H68.2812V52.9375H72.2812H76.2812V50.4531H72.2812ZM72.2812 52.9375H68.2812C68.2812 56.6669 69.1431 60.1085 71.2251 62.9146L74.4375 60.5312L77.6499 58.1479C76.8569 57.079 76.2812 55.4581 76.2812 52.9375H72.2812ZM74.4375 60.5312L71.2251 62.9146C73.5303 66.0216 76.9051 67.4375 80.7188 67.4375V63.4375V59.4375C79.0324 59.4375 78.2197 58.9159 77.6499 58.1479L74.4375 60.5312ZM80.7188 63.4375V67.4375C84.5456 67.4375 87.9447 66.0342 90.2593 62.9146L87.0469 60.5312L83.8345 58.1479C83.274 58.9033 82.4544 59.4375 80.7188 59.4375V63.4375ZM87.0469 60.5312L90.2593 62.9146C92.3413 60.1085 93.2031 56.6669 93.2031 52.9375H89.2031H85.2031C85.2031 55.4581 84.6275 57.079 83.8345 58.1479L87.0469 60.5312ZM89.2031 52.9375H93.2031V50.4531H89.2031H85.2031V52.9375H89.2031ZM89.2031 50.4531H93.2031C93.2031 46.7728 92.3344 43.3693 90.2213 40.6131L87.0469 43.0469L83.8724 45.4806C84.6344 46.4744 85.2031 48.0085 85.2031 50.4531H89.2031ZM87.0469 43.0469L90.2406 40.6385C87.9163 37.5563 84.5207 36.1875 80.7188 36.1875V40.1875V44.1875C82.4793 44.1875 83.3024 44.7249 83.8532 45.4552L87.0469 43.0469ZM80.7188 40.1875V36.1875C76.9302 36.1875 73.5588 37.5687 71.2438 40.6385L74.4375 43.0469L77.6312 45.4552C78.1912 44.7126 79.0073 44.1875 80.7188 44.1875V40.1875ZM74.4375 43.0469L71.2631 40.6131C69.15 43.3693 68.2812 46.7728 68.2812 50.4531H72.2812H76.2812C76.2812 48.0085 76.85 46.4744 77.6119 45.4806L74.4375 43.0469ZM110.938 73.4219H106.938V77.4219H110.938V73.4219ZM110.938 30.2969V26.2969H106.938V30.2969H110.938ZM127.109 30.2969H131.109V26.2969H127.109V30.2969ZM127.109 36.25H123.109V40.25H127.109V36.25ZM127.156 36.25V40.25H129.355L130.533 38.394L127.156 36.25ZM131.938 31.4219L134.106 34.7831L134.113 34.7788L134.119 34.7744L131.938 31.4219ZM143.094 30.0625H147.094V27.3544L144.579 26.3486L143.094 30.0625ZM143.094 41.7344L141.711 45.4877L147.094 47.4709V41.7344H143.094ZM140.938 41.2656L140.351 45.2224L140.423 45.2331L140.496 45.2412L140.938 41.2656ZM127.344 48.2031L123.828 46.2948L123.344 47.1874V48.2031H127.344ZM127.344 73.4219V77.4219H131.344V73.4219H127.344ZM110.938 73.4219H114.938V30.2969H110.938H106.938V73.4219H110.938ZM110.938 30.2969V34.2969H127.109V30.2969V26.2969H110.938V30.2969ZM127.109 30.2969H123.109V36.25H127.109H131.109V30.2969H127.109ZM127.109 36.25V40.25H127.156V36.25V32.25H127.109V36.25ZM127.156 36.25L130.533 38.394C131.477 36.9078 132.66 35.7158 134.106 34.7831L131.938 31.4219L129.769 28.0607C127.34 29.6279 125.336 31.6547 123.779 34.106L127.156 36.25ZM131.938 31.4219L134.119 34.7744C135.388 33.9487 136.868 33.5 138.688 33.5V29.5V25.5C135.444 25.5 132.424 26.3325 129.756 28.0693L131.938 31.4219ZM138.688 29.5V33.5C139.448 33.5 140.141 33.5507 140.773 33.6443L141.359 29.6875L141.946 25.7307C140.89 25.5743 139.802 25.5 138.688 25.5V29.5ZM141.359 29.6875L140.773 33.6443C141.143 33.699 141.406 33.7468 141.58 33.7847C141.666 33.8032 141.713 33.8156 141.729 33.8199C141.749 33.8258 141.701 33.8135 141.608 33.7764L143.094 30.0625L144.579 26.3486C143.779 26.0285 142.769 25.8527 141.946 25.7307L141.359 29.6875ZM143.094 30.0625H139.094V41.7344H143.094H147.094V30.0625H143.094ZM143.094 41.7344L144.477 37.981C143.496 37.6198 142.443 37.4083 141.379 37.2901L140.938 41.2656L140.496 45.2412C141.12 45.3105 141.504 45.4114 141.711 45.4877L143.094 41.7344ZM140.938 41.2656L141.524 37.3088C140.456 37.1507 139.336 37.0781 138.172 37.0781V41.0781V45.0781C139.008 45.0781 139.731 45.1306 140.351 45.2224L140.938 41.2656ZM138.172 41.0781V37.0781C135.254 37.0781 132.5 38.0092 129.967 39.6319L132.125 43L134.283 46.3681C135.75 45.4283 137.028 45.0781 138.172 45.0781V41.0781ZM132.125 43L129.967 39.6319C127.371 41.295 125.322 43.5434 123.828 46.2948L127.344 48.2031L130.859 50.1115C131.741 48.4879 132.879 47.2675 134.283 46.3681L132.125 43ZM127.344 48.2031H123.344V73.4219H127.344H131.344V48.2031H127.344ZM127.344 73.4219V69.4219H110.938V73.4219V77.4219H127.344V73.4219ZM145.516 41.7812H141.516V45.7812H145.516V41.7812ZM145.516 30.2969V26.2969H141.516V30.2969H145.516ZM177.391 30.2969H181.391V26.2969H177.391V30.2969ZM177.391 41.7812V45.7812H181.391V41.7812H177.391ZM152.266 32.4062L149.193 29.8455L148.266 30.9581V32.4062H152.266ZM152.734 31.8438L155.807 34.4045L156.734 33.2919V31.8438H152.734ZM152.734 15.9531V11.9531H148.734V15.9531H152.734ZM167.969 15.9531H171.969V11.9531H167.969V15.9531ZM175.281 63.0156L175.799 66.982L175.869 66.9729L175.939 66.9612L175.281 63.0156ZM177.438 62.4531H181.438V56.7423L176.071 58.694L177.438 62.4531ZM177.438 73.1875L178.536 77.0336L181.438 76.2047V73.1875H177.438ZM173.406 73.9375L172.86 69.975L172.826 69.9796L172.793 69.9848L173.406 73.9375ZM155.922 70.9844L153.189 73.9049L153.199 73.9143L153.209 73.9236L155.922 70.9844ZM145.516 41.7812H149.516V30.2969H145.516H141.516V41.7812H145.516ZM145.516 30.2969V34.2969H177.391V30.2969V26.2969H145.516V30.2969ZM177.391 30.2969H173.391V41.7812H177.391H181.391V30.2969H177.391ZM177.391 41.7812V37.7812H145.516V41.7812V45.7812H177.391V41.7812ZM152.266 59.875H156.266V32.4062H152.266H148.266V59.875H152.266ZM152.266 32.4062L155.339 34.967L155.807 34.4045L152.734 31.8438L149.661 29.283L149.193 29.8455L152.266 32.4062ZM152.734 31.8438H156.734V15.9531H152.734H148.734V31.8438H152.734ZM152.734 15.9531V19.9531H167.969V15.9531V11.9531H152.734V15.9531ZM167.969 15.9531H163.969V55.8438H167.969H171.969V15.9531H167.969ZM167.969 55.8438H163.969C163.969 57.543 164.073 59.1058 164.336 60.4543C164.58 61.7057 165.052 63.2707 166.157 64.5078L169.141 61.8438L172.124 59.1797C172.448 59.5418 172.334 59.6693 172.188 58.9207C172.06 58.2692 171.969 57.2695 171.969 55.8438H167.969ZM169.141 61.8438L166.157 64.5078C168.018 66.5918 170.655 67.1562 172.984 67.1562V63.1562V59.1562C172.403 59.1562 172.097 59.0825 171.98 59.0427C171.889 59.0115 171.991 59.0298 172.124 59.1797L169.141 61.8438ZM172.984 63.1562V67.1562C173.95 67.1562 174.889 67.1006 175.799 66.982L175.281 63.0156L174.764 59.0492C174.236 59.1181 173.644 59.1562 172.984 59.1562V63.1562ZM175.281 63.0156L175.939 66.9612C176.921 66.7975 177.878 66.5492 178.804 66.2123L177.438 62.4531L176.071 58.694C175.622 58.857 175.141 58.9837 174.624 59.07L175.281 63.0156ZM177.438 62.4531H173.438V73.1875H177.438H181.438V62.4531H177.438ZM177.438 73.1875L176.339 69.3414C175.746 69.5106 174.632 69.7305 172.86 69.975L173.406 73.9375L173.953 77.9C175.805 77.6445 177.379 77.3644 178.536 77.0336L177.438 73.1875ZM173.406 73.9375L172.793 69.9848C171.26 70.2226 169.172 70.3594 166.469 70.3594V74.3594V78.3594C169.391 78.3594 171.927 78.2149 174.02 77.8902L173.406 73.9375ZM166.469 74.3594V70.3594C162.491 70.3594 160.09 69.3883 158.635 68.0452L155.922 70.9844L153.209 73.9236C156.629 77.0805 161.259 78.3594 166.469 78.3594V74.3594ZM155.922 70.9844L158.655 68.0639C157.372 66.863 156.266 64.479 156.266 59.875H152.266H148.266C148.266 65.521 149.597 70.5433 153.189 73.9049L155.922 70.9844ZM185.391 73.4219H181.391V77.4219H185.391V73.4219ZM190.922 8.78125L193.523 11.8201L193.53 11.8138L193.538 11.8074L190.922 8.78125ZM209.672 4.23438L209.106 8.19417L209.114 8.19527L209.122 8.19634L209.672 4.23438ZM213.188 4.84375L217.181 5.07011L217.377 1.61978L213.991 0.925339L213.188 4.84375ZM212.531 16.4219L211.874 20.3675L216.272 21.1006L216.525 16.6482L212.531 16.4219ZM210.656 16.0938L209.908 20.0231L209.924 20.0262L209.941 20.0292L210.656 16.0938ZM202.875 18.0625L199.889 15.401L199.873 15.4193L199.857 15.4378L202.875 18.0625ZM201 32.875H197V33.8193L197.422 34.6639L201 32.875ZM201.234 33.3438H205.234V32.3995L204.812 31.5549L201.234 33.3438ZM201.234 73.4219V77.4219H205.234V73.4219H201.234ZM178.547 41.7812H174.547V45.7812H178.547V41.7812ZM178.547 30.2969V26.2969H174.547V30.2969H178.547ZM209.719 30.2969H213.719V26.2969H209.719V30.2969ZM209.719 41.7812V45.7812H213.719V41.7812H209.719ZM185.391 73.4219H189.391V22.75H185.391H181.391V73.4219H185.391ZM185.391 22.75H189.391C189.391 17.4243 190.951 14.0211 193.523 11.8201L190.922 8.78125L188.321 5.74241C183.517 9.85394 181.391 15.7632 181.391 22.75H185.391ZM190.922 8.78125L193.538 11.8074C196.299 9.42038 200.3 8 206.016 8V4V0C198.981 0 192.92 1.76712 188.306 5.75511L190.922 8.78125ZM206.016 4V8C207.209 8 208.235 8.06968 209.106 8.19417L209.672 4.23438L210.238 0.274577C208.922 0.0865724 207.51 0 206.016 0V4ZM209.672 4.23438L209.122 8.19634C210.154 8.33975 211.241 8.52779 212.384 8.76216L213.188 4.84375L213.991 0.925339C212.696 0.659712 211.44 0.441504 210.222 0.272406L209.672 4.23438ZM213.188 4.84375L209.194 4.61739L208.538 16.1955L212.531 16.4219L216.525 16.6482L217.181 5.07011L213.188 4.84375ZM212.531 16.4219L213.189 12.4763C212.649 12.3864 212.044 12.2805 211.372 12.1583L210.656 16.0938L209.941 20.0292C210.643 20.157 211.288 20.2699 211.874 20.3675L212.531 16.4219ZM210.656 16.0938L211.405 12.1644C210.44 11.9806 209.413 11.9062 208.359 11.9062V15.9062V19.9062C209.056 19.9062 209.56 19.9569 209.908 20.0231L210.656 16.0938ZM208.359 15.9062V11.9062C205.131 11.9062 202.102 12.9185 199.889 15.401L202.875 18.0625L205.861 20.724C206.211 20.3315 206.837 19.9062 208.359 19.9062V15.9062ZM202.875 18.0625L199.857 15.4378C197.658 17.9662 197 21.5041 197 25.0938H201H205C205 22.1834 205.592 21.0338 205.893 20.6872L202.875 18.0625ZM201 25.0938H197V32.875H201H205V25.0938H201ZM201 32.875L197.422 34.6639L197.657 35.1326L201.234 33.3438L204.812 31.5549L204.578 31.0861L201 32.875ZM201.234 33.3438H197.234V73.4219H201.234H205.234V33.3438H201.234ZM201.234 73.4219V69.4219H185.391V73.4219V77.4219H201.234V73.4219ZM178.547 41.7812H182.547V30.2969H178.547H174.547V41.7812H178.547ZM178.547 30.2969V34.2969H188.344V30.2969V26.2969H178.547V30.2969ZM188.344 30.2969V34.2969H189.281V30.2969V26.2969H188.344V30.2969ZM189.281 30.2969V34.2969H209.719V30.2969V26.2969H189.281V30.2969ZM209.719 30.2969H205.719V41.7812H209.719H213.719V30.2969H209.719ZM209.719 41.7812V37.7812H178.547V41.7812V45.7812H209.719V41.7812ZM218.047 35.0312L220.726 38.0013L220.727 38.0003L218.047 35.0312ZM253.859 35.0312L251.169 37.991L251.174 37.9962L251.18 38.0013L253.859 35.0312ZM242.234 43.0469L239.041 45.4552L239.05 45.468L239.06 45.4806L242.234 43.0469ZM229.625 43.0469L232.799 45.4806L232.809 45.468L232.819 45.4552L229.625 43.0469ZM211.344 52.5156H215.344V50.9688H211.344H207.344V52.5156H211.344ZM211.344 50.9688H215.344C215.344 45.3862 217.184 41.1966 220.726 38.0013L218.047 35.0312L215.368 32.0612C209.972 36.9284 207.344 43.3638 207.344 50.9688H211.344ZM218.047 35.0312L220.727 38.0003C224.335 34.7437 229.271 32.9375 235.953 32.9375V28.9375V24.9375C227.76 24.9375 220.759 27.1938 215.366 32.0622L218.047 35.0312ZM235.953 28.9375V32.9375C242.673 32.9375 247.6 34.7468 251.169 37.991L253.859 35.0312L256.55 32.0715C251.181 27.1907 244.171 24.9375 235.953 24.9375V28.9375ZM253.859 35.0312L251.18 38.0013C254.722 41.1966 256.562 45.3862 256.562 50.9688H260.562H264.562C264.562 43.3638 261.934 36.9284 256.539 32.0612L253.859 35.0312ZM260.562 50.9688H256.562V52.5156H260.562H264.562V50.9688H260.562ZM260.562 52.5156H256.562C256.562 58.1358 254.718 62.3385 251.18 65.5299L253.859 68.5L256.539 71.4701C261.938 66.599 264.562 60.1455 264.562 52.5156H260.562ZM253.859 68.5L251.18 65.5299C247.612 68.7486 242.681 70.5469 235.953 70.5469V74.5469V78.5469C244.163 78.5469 251.169 76.3139 256.539 71.4701L253.859 68.5ZM235.953 74.5469V70.5469C229.225 70.5469 224.294 68.7486 220.726 65.5299L218.047 68.5L215.368 71.4701C220.737 76.3139 227.743 78.5469 235.953 78.5469V74.5469ZM218.047 68.5L220.726 65.5299C217.188 62.3385 215.344 58.1358 215.344 52.5156H211.344H207.344C207.344 60.1455 209.968 66.599 215.368 71.4701L218.047 68.5ZM227.469 50.4531H223.469V52.9375H227.469H231.469V50.4531H227.469ZM227.469 52.9375H223.469C223.469 56.6669 224.331 60.1085 226.413 62.9146L229.625 60.5312L232.837 58.1479C232.044 57.079 231.469 55.4581 231.469 52.9375H227.469ZM229.625 60.5312L226.413 62.9146C228.718 66.0216 232.093 67.4375 235.906 67.4375V63.4375V59.4375C234.22 59.4375 233.407 58.9159 232.837 58.1479L229.625 60.5312ZM235.906 63.4375V67.4375C239.733 67.4375 243.132 66.0342 245.447 62.9146L242.234 60.5312L239.022 58.1479C238.462 58.9033 237.642 59.4375 235.906 59.4375V63.4375ZM242.234 60.5312L245.447 62.9146C247.529 60.1085 248.391 56.6669 248.391 52.9375H244.391H240.391C240.391 55.4581 239.815 57.079 239.022 58.1479L242.234 60.5312ZM244.391 52.9375H248.391V50.4531H244.391H240.391V52.9375H244.391ZM244.391 50.4531H248.391C248.391 46.7728 247.522 43.3693 245.409 40.6131L242.234 43.0469L239.06 45.4806C239.822 46.4744 240.391 48.0085 240.391 50.4531H244.391ZM242.234 43.0469L245.428 40.6385C243.104 37.5563 239.708 36.1875 235.906 36.1875V40.1875V44.1875C237.667 44.1875 238.49 44.7249 239.041 45.4552L242.234 43.0469ZM235.906 40.1875V36.1875C232.118 36.1875 228.746 37.5687 226.431 40.6385L229.625 43.0469L232.819 45.4552C233.379 44.7126 234.195 44.1875 235.906 44.1875V40.1875ZM229.625 43.0469L226.451 40.6131C224.338 43.3693 223.469 46.7728 223.469 50.4531H227.469H231.469C231.469 48.0085 232.037 46.4744 232.799 45.4806L229.625 43.0469ZM266.125 73.4219H262.125V77.4219H266.125V73.4219ZM266.125 5.03125V1.03125H262.125V5.03125H266.125ZM282.297 5.03125H286.297V1.03125H282.297V5.03125ZM282.297 73.4219V77.4219H286.297V73.4219H282.297ZM266.125 73.4219H270.125V5.03125H266.125H262.125V73.4219H266.125ZM266.125 5.03125V9.03125H282.297V5.03125V1.03125H266.125V5.03125ZM282.297 5.03125H278.297V73.4219H282.297H286.297V5.03125H282.297ZM282.297 73.4219V69.4219H266.125V73.4219V77.4219H282.297V73.4219ZM290.016 73.4219H286.016V77.4219H290.016V73.4219ZM290.016 30.2969V26.2969H286.016V30.2969H290.016ZM306.281 30.2969H310.281V26.2969H306.281V30.2969ZM306.281 73.4219V77.4219H310.281V73.4219H306.281ZM291.516 9.39062L294.344 12.2191L294.358 12.2051L294.372 12.1909L291.516 9.39062ZM304.828 9.34375L301.971 12.1435L301.985 12.1579L302 12.1722L304.828 9.34375ZM304.734 20.9688L301.879 18.1679L301.878 18.1685L304.734 20.9688ZM291.469 20.9688L288.558 23.712L288.571 23.7261L288.584 23.7401L291.469 20.9688ZM290.016 73.4219H294.016V30.2969H290.016H286.016V73.4219H290.016ZM290.016 30.2969V34.2969H306.281V30.2969V26.2969H290.016V30.2969ZM306.281 30.2969H302.281V73.4219H306.281H310.281V30.2969H306.281ZM306.281 73.4219V69.4219H290.016V73.4219V77.4219H306.281V73.4219ZM289.172 15.1094H293.172C293.172 13.8985 293.547 13.0162 294.344 12.2191L291.516 9.39062L288.687 6.5622C286.359 8.89005 285.172 11.8202 285.172 15.1094H289.172ZM291.516 9.39062L294.372 12.1909C294.974 11.5769 296.048 11 298.219 11V7V3C294.577 3 291.182 4.0168 288.659 6.59034L291.516 9.39062ZM298.219 7V11C300.371 11 301.407 11.568 301.971 12.1435L304.828 9.34375L307.685 6.54404C305.186 3.99453 301.817 3 298.219 3V7ZM304.828 9.34375L302 12.1722C302.726 12.8987 303.125 13.778 303.125 15.1094H307.125H311.125C311.125 11.8158 309.993 8.8513 307.657 6.51532L304.828 9.34375ZM307.125 15.1094H303.125C303.125 16.3459 302.737 17.2926 301.879 18.1679L304.734 20.9688L307.59 23.7696C309.919 21.3949 311.125 18.4354 311.125 15.1094H307.125ZM304.734 20.9688L301.878 18.1685C301.268 18.7904 300.203 19.3594 298.078 19.3594V23.3594V27.3594C301.703 27.3594 305.075 26.3346 307.591 23.769L304.734 20.9688ZM298.078 23.3594V19.3594C295.948 19.3594 294.921 18.7889 294.353 18.1974L291.469 20.9688L288.584 23.7401C291.079 26.3361 294.458 27.3594 298.078 27.3594V23.3594ZM291.469 20.9688L294.38 18.2255C293.565 17.3604 293.172 16.3954 293.172 15.1094H289.172H285.172C285.172 18.3858 286.31 21.3271 288.558 23.712L291.469 20.9688ZM318.734 35.0312L321.414 38.0013L321.415 38.0003L318.734 35.0312ZM354.547 35.0312L351.856 37.991L351.862 37.9962L351.868 38.0013L354.547 35.0312ZM342.922 43.0469L339.728 45.4552L339.738 45.468L339.747 45.4806L342.922 43.0469ZM330.312 43.0469L333.487 45.4806L333.497 45.468L333.506 45.4552L330.312 43.0469ZM312.031 52.5156H316.031V50.9688H312.031H308.031V52.5156H312.031ZM312.031 50.9688H316.031C316.031 45.3862 317.872 41.1966 321.414 38.0013L318.734 35.0312L316.055 32.0612C310.66 36.9284 308.031 43.3638 308.031 50.9688H312.031ZM318.734 35.0312L321.415 38.0003C325.022 34.7437 329.958 32.9375 336.641 32.9375V28.9375V24.9375C328.448 24.9375 321.447 27.1938 316.054 32.0622L318.734 35.0312ZM336.641 28.9375V32.9375C343.36 32.9375 348.288 34.7468 351.856 37.991L354.547 35.0312L357.238 32.0715C351.869 27.1907 344.858 24.9375 336.641 24.9375V28.9375ZM354.547 35.0312L351.868 38.0013C355.41 41.1966 357.25 45.3862 357.25 50.9688H361.25H365.25C365.25 43.3638 362.622 36.9284 357.226 32.0612L354.547 35.0312ZM361.25 50.9688H357.25V52.5156H361.25H365.25V50.9688H361.25ZM361.25 52.5156H357.25C357.25 58.1358 355.405 62.3385 351.868 65.5299L354.547 68.5L357.226 71.4701C362.626 66.599 365.25 60.1455 365.25 52.5156H361.25ZM354.547 68.5L351.868 65.5299C348.3 68.7486 343.368 70.5469 336.641 70.5469V74.5469V78.5469C344.85 78.5469 351.857 76.3139 357.226 71.4701L354.547 68.5ZM336.641 74.5469V70.5469C329.913 70.5469 324.982 68.7486 321.414 65.5299L318.734 68.5L316.055 71.4701C321.425 76.3139 328.431 78.5469 336.641 78.5469V74.5469ZM318.734 68.5L321.414 65.5299C317.876 62.3385 316.031 58.1358 316.031 52.5156H312.031H308.031C308.031 60.1455 310.655 66.599 316.055 71.4701L318.734 68.5ZM328.156 50.4531H324.156V52.9375H328.156H332.156V50.4531H328.156ZM328.156 52.9375H324.156C324.156 56.6669 325.018 60.1085 327.1 62.9146L330.312 60.5312L333.525 58.1479C332.732 57.079 332.156 55.4581 332.156 52.9375H328.156ZM330.312 60.5312L327.1 62.9146C329.405 66.0216 332.78 67.4375 336.594 67.4375V63.4375V59.4375C334.907 59.4375 334.095 58.9159 333.525 58.1479L330.312 60.5312ZM336.594 63.4375V67.4375C340.421 67.4375 343.82 66.0342 346.134 62.9146L342.922 60.5312L339.709 58.1479C339.149 58.9033 338.329 59.4375 336.594 59.4375V63.4375ZM342.922 60.5312L346.134 62.9146C348.216 60.1085 349.078 56.6669 349.078 52.9375H345.078H341.078C341.078 55.4581 340.502 57.079 339.709 58.1479L342.922 60.5312ZM345.078 52.9375H349.078V50.4531H345.078H341.078V52.9375H345.078ZM345.078 50.4531H349.078C349.078 46.7728 348.209 43.3693 346.096 40.6131L342.922 43.0469L339.747 45.4806C340.509 46.4744 341.078 48.0085 341.078 50.4531H345.078ZM342.922 43.0469L346.116 40.6385C343.791 37.5563 340.396 36.1875 336.594 36.1875V40.1875V44.1875C338.354 44.1875 339.177 44.7249 339.728 45.4552L342.922 43.0469ZM336.594 40.1875V36.1875C332.805 36.1875 329.434 37.5687 327.119 40.6385L330.312 43.0469L333.506 45.4552C334.066 44.7126 334.882 44.1875 336.594 44.1875V40.1875ZM330.312 43.0469L327.138 40.6131C325.025 43.3693 324.156 46.7728 324.156 50.4531H328.156H332.156C332.156 48.0085 332.725 46.4744 333.487 45.4806L330.312 43.0469Z" fill="#FFD8E4" mask="url(#path-1-outside-1_2064_23)"/>
</svg>
