<svg width="377" height="308" viewBox="0 0 377 308" fill="none" xmlns="http://www.w3.org/2000/svg">
<path d="M247.65 60.4599C258.966 51.4189 275.034 51.4189 286.35 60.4599L317.172 85.0858C323.224 89.9211 330.867 92.3154 338.597 91.7972L378.624 89.1133C393.468 88.118 406.926 97.8076 410.69 112.2L419.764 146.9C421.828 154.791 426.919 161.551 433.933 165.714L465.679 184.556C479.032 192.482 484.461 209.064 478.381 223.352L464.973 254.862C461.673 262.618 461.673 271.382 464.973 279.138L478.381 310.647C484.461 324.936 479.032 341.518 465.679 349.443L433.933 368.285C426.919 372.449 421.828 379.209 419.764 387.1L410.69 421.799C406.926 436.192 393.468 445.882 378.624 444.887L338.597 442.203C330.867 441.684 323.224 444.079 317.172 448.914L286.35 473.54C275.034 482.581 258.966 482.581 247.65 473.54L216.827 448.914C210.775 444.079 203.132 441.684 195.403 442.203L155.375 444.887C140.532 445.882 127.074 436.192 123.31 421.799L114.235 387.1C112.172 379.209 107.081 372.449 100.066 368.285L68.3208 349.443C54.9677 341.518 49.5383 324.936 55.6182 310.647L69.0261 279.138C72.3262 271.382 72.3262 262.618 69.0261 254.862L55.6182 223.352C49.5383 209.064 54.9677 192.482 68.3208 184.556L100.066 165.714C107.081 161.551 112.172 154.791 114.235 146.9L123.31 112.2C127.074 97.8076 140.532 88.118 155.375 89.1133L195.403 91.7972C203.132 92.3154 210.775 89.9211 216.827 85.0858L247.65 60.4599Z" fill="#FFD8E4"/>
<path d="M247.649 7.45941C258.965 -1.58151 275.034 -1.5806 286.35 7.46039L331.396 43.4506C337.448 48.2859 345.092 50.6798 352.821 50.1616L411.38 46.2358C426.223 45.2405 439.681 54.9299 443.445 69.3227L457.004 121.167C459.068 129.059 464.159 135.82 471.173 139.983L518.679 168.178C532.032 176.104 537.461 192.686 531.381 206.974L511.004 254.862C507.704 262.617 507.704 271.383 511.004 279.138L531.381 327.026C537.461 341.314 532.032 357.896 518.679 365.822L471.173 394.017C464.159 398.18 459.068 404.941 457.004 412.832L443.445 464.677C439.681 479.07 426.223 488.759 411.38 487.764L352.821 483.838C345.092 483.32 337.448 485.714 331.396 490.549L286.35 526.54C275.034 535.581 258.965 535.581 247.649 526.54L202.603 490.549C196.551 485.714 188.908 483.32 181.179 483.838L122.619 487.764C107.776 488.759 94.3177 479.07 90.5537 464.677L76.9951 412.832C74.9313 404.941 69.8405 398.18 62.8262 394.017L15.3203 365.822C1.96745 357.896 -3.46145 341.314 2.61816 327.026L22.9951 279.138C26.2952 271.383 26.2952 262.617 22.9951 254.862L2.61816 206.974C-3.46147 192.686 1.96745 176.104 15.3203 168.178L62.8262 139.983C69.8405 135.82 74.9314 129.059 76.9951 121.167L90.5537 69.3227C94.3177 54.9299 107.776 45.2406 122.619 46.2358L181.179 50.1616C188.908 50.6798 196.551 48.2858 202.603 43.4506L247.649 7.45941ZM286.35 32.4604C275.034 23.4194 258.965 23.4185 247.649 32.4594L209.312 63.0903C203.261 67.9254 195.618 70.3193 187.889 69.8012L138.07 66.4604C123.227 65.4651 109.769 75.1554 106.005 89.5483L94.5615 133.305C92.4978 141.197 87.4069 147.957 80.3926 152.121L40.3203 175.904C26.9675 183.829 21.5384 200.412 27.6182 214.7L44.708 254.862C48.0081 262.617 48.0081 271.383 44.708 279.138L27.6182 319.3C21.5384 333.588 26.9683 350.171 40.3213 358.096L80.3926 381.879C87.4069 386.043 92.4977 392.803 94.5615 400.695L106.005 444.452C109.769 458.844 123.227 468.535 138.07 467.539L187.889 464.199C195.618 463.681 203.261 466.074 209.312 470.91L247.649 501.54C258.965 510.581 275.034 510.581 286.35 501.54L324.688 470.91C330.739 466.075 338.382 463.68 346.111 464.199L395.93 467.539C410.773 468.535 424.23 458.844 427.994 444.452L439.438 400.695C441.502 392.803 446.593 386.043 453.607 381.879L493.679 358.096C507.032 350.171 512.461 333.588 506.381 319.3L489.292 279.138C485.992 271.383 485.992 262.617 489.292 254.862L506.381 214.7C512.461 200.411 507.032 183.829 493.679 175.904L453.607 152.121C446.593 147.957 441.502 141.197 439.438 133.305L427.994 89.5483C424.23 75.1556 410.773 65.4653 395.93 66.4604L346.111 69.8012C338.382 70.3194 330.739 67.9254 324.688 63.0903L286.35 32.4604Z" fill="#FFD8E4"/>
</svg>
